<svg xmlns="http://www.w3.org/2000/svg" xmlns:xlink="http://www.w3.org/1999/xlink" width="500" zoomAndPan="magnify" viewBox="0 0 375 374.999991" height="500" preserveAspectRatio="xMidYMid meet" version="1.0"><defs><g/><clipPath id="0edd141dcc"><path d="M 0 187.527344 L 375 187.527344 L 375 222.5625 L 0 222.5625 Z M 0 187.527344 " clip-rule="nonzero"/></clipPath></defs><g fill="#000000" fill-opacity="1"><g transform="translate(41.507939, 267.35976)"><g><path d="M -0.359375 0 L -0.359375 -1.828125 L 4.1875 -1.828125 C 8.195312 -1.828125 11.050781 -2.582031 12.75 -4.09375 C 14.457031 -5.613281 16.160156 -8.742188 17.859375 -13.484375 L 58.328125 -130.140625 L 64.15625 -130.140625 L 108.078125 -11.125 C 109.421875 -7.351562 110.789062 -4.859375 112.1875 -3.640625 C 113.582031 -2.429688 115.921875 -1.828125 119.203125 -1.828125 L 122.125 -1.828125 L 122.125 0 L 77.640625 0 L 77.640625 -1.828125 L 83.109375 -1.828125 C 87.734375 -1.828125 90.832031 -2.3125 92.40625 -3.28125 C 93.988281 -4.25 94.78125 -5.890625 94.78125 -8.203125 C 94.78125 -9.785156 94.414062 -11.847656 93.6875 -14.390625 C 92.957031 -16.941406 92.285156 -19.070312 91.671875 -20.78125 L 82.015625 -47.203125 L 31.71875 -47.203125 L 22.59375 -21.5 C 22.113281 -19.800781 21.476562 -17.675781 20.6875 -15.125 C 19.894531 -12.570312 19.5 -10.507812 19.5 -8.9375 C 19.5 -6.382812 20.5 -4.5625 22.5 -3.46875 C 24.507812 -2.375 28.367188 -1.828125 34.078125 -1.828125 L 41.015625 -1.828125 L 41.015625 0 Z M 32.265625 -49.03125 L 81.46875 -49.03125 L 67.4375 -88.03125 C 65.488281 -93.625 63.507812 -99.304688 61.5 -105.078125 C 59.5 -110.847656 57.832031 -115.921875 56.5 -120.296875 C 55.28125 -116.160156 53.726562 -111.421875 51.84375 -106.078125 C 49.96875 -100.734375 48.179688 -95.507812 46.484375 -90.40625 Z M 32.265625 -49.03125 "/></g></g></g><g fill="#000000" fill-opacity="1"><g transform="translate(165.080561, 267.35976)"><g><path d="M 7.84375 0 L 7.84375 -1.828125 L 15.3125 -1.828125 C 20.050781 -1.828125 23.359375 -2.828125 25.234375 -4.828125 C 27.117188 -6.835938 28.0625 -10.632812 28.0625 -16.21875 L 28.0625 -114.28125 C 28.0625 -119.625 27.117188 -123.296875 25.234375 -125.296875 C 23.359375 -127.304688 20.050781 -128.3125 15.3125 -128.3125 L 7.84375 -128.3125 L 7.84375 -130.140625 L 37.90625 -130.140625 L 85.671875 -13.671875 L 129.765625 -130.140625 L 157.65625 -130.140625 L 157.65625 -128.3125 L 153.109375 -128.3125 C 148.242188 -128.3125 144.898438 -127.304688 143.078125 -125.296875 C 141.253906 -123.296875 140.34375 -119.503906 140.34375 -113.921875 L 140.34375 -16.21875 C 140.34375 -10.632812 141.253906 -6.835938 143.078125 -4.828125 C 144.898438 -2.828125 148.242188 -1.828125 153.109375 -1.828125 L 157.65625 -1.828125 L 157.65625 0 L 111.734375 0 L 111.734375 -1.828125 L 116.65625 -1.828125 C 120.78125 -1.828125 123.753906 -2.828125 125.578125 -4.828125 C 127.398438 -6.835938 128.3125 -10.632812 128.3125 -16.21875 L 128.3125 -121.203125 L 82.5625 0 L 78.734375 0 L 29.890625 -119.390625 L 29.890625 -16.21875 C 29.890625 -10.632812 30.832031 -6.835938 32.71875 -4.828125 C 34.601562 -2.828125 37.972656 -1.828125 42.828125 -1.828125 L 47.203125 -1.828125 L 47.203125 0 Z M 7.84375 0 "/></g></g></g><g clip-path="url(#0edd141dcc)"><path fill="#ffffff" d="M 0 187.527344 L 374.675781 187.527344 L 374.675781 222.339844 L 0 222.339844 Z M 0 187.527344 " fill-opacity="1" fill-rule="nonzero"/></g><g fill="#000000" fill-opacity="1"><g transform="translate(79.317389, 212.280812)"><g><path d="M 12.394531 2.050781 C 12.535156 2.050781 12.679688 1.90625 12.679688 1.765625 C 12.679688 1.714844 12.679688 1.667969 12.632812 1.621094 C 12.394531 1.144531 13.585938 -0.90625 16.636719 -4.910156 C 18.972656 -4.863281 21.546875 -4.71875 24.453125 -4.527344 C 24.597656 -4.527344 24.738281 -4.671875 24.738281 -4.8125 C 24.738281 -4.957031 24.597656 -5.050781 24.453125 -5.101562 C 21.734375 -5.242188 19.304688 -5.386719 17.066406 -5.480469 C 18.113281 -6.863281 19.402344 -8.484375 20.878906 -10.390625 C 22.832031 -12.773438 24.40625 -14.777344 24.597656 -15.300781 C 24.785156 -15.824219 24.597656 -16.160156 24.070312 -16.160156 C 21.785156 -16.160156 13.300781 -10.582031 6.53125 -5.433594 C 3.71875 -5.292969 1.476562 -5.003906 -0.332031 -4.625 C -0.476562 -4.574219 -0.570312 -4.480469 -0.570312 -4.335938 C -0.570312 -4.195312 -0.429688 -4.050781 -0.285156 -4.050781 L -0.238281 -4.050781 C 1.382812 -4.433594 3.335938 -4.671875 5.71875 -4.8125 C 3.527344 -3.144531 1.574219 -1.523438 0.09375 -0.191406 C 0.046875 -0.144531 0 -0.09375 0 0 C 0 0.144531 0.144531 0.285156 0.285156 0.285156 C 0.332031 0.285156 0.429688 0.238281 0.476562 0.191406 C 2.050781 -1.238281 4.289062 -3.050781 6.722656 -4.910156 C 9.296875 -5.050781 12.296875 -5.050781 15.96875 -4.957031 C 12.871094 -0.90625 11.726562 1.144531 12.15625 1.90625 C 12.203125 2.003906 12.296875 2.050781 12.394531 2.050781 Z M 7.484375 -5.480469 C 14.0625 -10.4375 21.972656 -15.636719 24.070312 -15.636719 C 24.167969 -15.636719 24.167969 -15.730469 24.070312 -15.492188 C 23.929688 -15.0625 22.402344 -13.15625 20.449219 -10.726562 L 16.351562 -5.480469 C 12.871094 -5.578125 9.960938 -5.578125 7.484375 -5.480469 Z M 7.484375 -5.480469 "/></g></g></g><g fill="#000000" fill-opacity="1"><g transform="translate(101.720614, 212.280812)"><g><path d="M 6.484375 -5.71875 C 5.71875 -5.71875 2.667969 -5.433594 0.808594 -4.003906 C 0.714844 -3.957031 0.714844 -3.859375 0.714844 -3.8125 C 0.714844 -3.621094 0.808594 -3.527344 0.953125 -3.527344 C 1.046875 -3.527344 1.097656 -3.527344 1.144531 -3.574219 C 2.859375 -4.910156 5.71875 -5.148438 6.484375 -5.148438 C 7.148438 -5.148438 7.246094 -5.050781 7.199219 -4.910156 C 7.148438 -4.527344 6.054688 -3.8125 2.957031 -2.289062 C 0.285156 -0.953125 -0.667969 -0.382812 -0.90625 0.09375 C -1.144531 0.523438 -0.808594 0.808594 -0.191406 0.808594 C 0 0.808594 0.285156 0.761719 0.621094 0.761719 C 2.050781 0.667969 4.527344 0.523438 6.195312 1.476562 C 6.246094 1.523438 6.292969 1.523438 6.339844 1.523438 C 6.484375 1.523438 6.625 1.382812 6.625 1.238281 C 6.625 1.144531 6.578125 1.046875 6.484375 1 C 4.625 -0.046875 2.003906 0.09375 0.570312 0.191406 C 0.382812 0.238281 0.191406 0.238281 0.09375 0.238281 C -0.09375 0.238281 -0.191406 0.046875 0 -0.046875 C 0.476562 -0.429688 1.476562 -0.953125 3.195312 -1.8125 C 6.484375 -3.433594 7.625 -4.148438 7.769531 -4.8125 C 7.863281 -5.433594 7.4375 -5.71875 6.484375 -5.71875 Z M 6.484375 -5.71875 "/></g></g></g><g fill="#000000" fill-opacity="1"><g transform="translate(113.351223, 212.280812)"><g><path d="M 6.433594 0.046875 C 8.101562 0.046875 12.488281 -1.765625 15.15625 -3.671875 C 15.207031 -3.71875 15.253906 -3.8125 15.253906 -3.910156 C 15.253906 -4.050781 15.15625 -4.148438 15.015625 -4.148438 C 14.917969 -4.148438 14.871094 -4.148438 14.824219 -4.097656 C 12.15625 -2.097656 7.914062 -0.523438 6.433594 -0.523438 C 5.625 -0.523438 5.242188 -0.761719 5.242188 -1.382812 C 5.242188 -2.289062 6.007812 -3.433594 6.578125 -4.242188 C 6.910156 -4.71875 7.101562 -5.003906 7.101562 -5.195312 C 7.101562 -5.386719 6.960938 -5.53125 6.769531 -5.53125 C 6.53125 -5.53125 5.957031 -5.148438 4.957031 -4.386719 C 4.671875 -4.910156 4.335938 -5.101562 3.621094 -5.101562 C 2.003906 -5.101562 -2.289062 -2.429688 -2.289062 -0.808594 C -2.289062 -0.332031 -1.953125 -0.046875 -1.429688 -0.046875 C -0.09375 -0.046875 2.859375 -2.242188 4.863281 -3.671875 C 5.242188 -3.957031 5.578125 -4.195312 5.816406 -4.335938 C 5.910156 -4.433594 6.054688 -4.386719 5.910156 -4.242188 C 5.339844 -3.382812 4.71875 -2.335938 4.71875 -1.382812 C 4.71875 -0.429688 5.292969 0.046875 6.433594 0.046875 Z M -1.429688 -0.621094 C -1.667969 -0.621094 -1.765625 -0.667969 -1.765625 -0.808594 C -1.765625 -1.953125 2.003906 -4.574219 3.621094 -4.574219 C 4.148438 -4.574219 4.289062 -4.480469 4.480469 -4.097656 C 2.527344 -2.621094 -0.285156 -0.621094 -1.429688 -0.621094 Z M -1.429688 -0.621094 "/></g></g></g><g fill="#000000" fill-opacity="1"><g transform="translate(127.269823, 212.280812)"><g><path d="M -1.335938 0.285156 C -0.953125 0.285156 -0.285156 -0.191406 1.859375 -2.003906 C 4.003906 -3.71875 6.484375 -5.816406 7.625 -5.816406 C 7.816406 -5.816406 7.914062 -5.71875 7.914062 -5.578125 C 7.914062 -5.242188 7.53125 -4.527344 6.53125 -2.957031 C 5.625 -1.667969 5.386719 -1.191406 5.386719 -0.859375 C 5.386719 -0.621094 5.480469 -0.429688 5.71875 -0.429688 C 6.007812 -0.429688 6.484375 -0.667969 7.769531 -1.476562 C 9.4375 -2.480469 10.105469 -2.8125 10.4375 -2.8125 C 10.582031 -2.8125 10.628906 -2.71875 10.628906 -2.667969 C 10.628906 -2.480469 10.582031 -2.242188 10.535156 -1.953125 C 10.488281 -1.667969 10.488281 -1.335938 10.488281 -1 C 10.488281 -0.429688 10.914062 -0.09375 11.679688 -0.09375 C 13.011719 -0.09375 15.015625 -1.097656 18.734375 -3.671875 C 18.828125 -3.71875 18.875 -3.8125 18.875 -3.910156 C 18.875 -4.050781 18.734375 -4.148438 18.589844 -4.148438 C 18.542969 -4.148438 18.496094 -4.148438 18.445312 -4.097656 C 14.824219 -1.621094 12.871094 -0.621094 11.679688 -0.621094 C 11.203125 -0.621094 11.011719 -0.761719 11.011719 -1 C 11.011719 -1.285156 11.058594 -1.621094 11.105469 -1.90625 C 11.105469 -2.144531 11.152344 -2.429688 11.152344 -2.667969 C 11.152344 -3.097656 10.964844 -3.335938 10.535156 -3.335938 C 9.867188 -3.335938 8.582031 -2.574219 7.484375 -1.953125 L 6.433594 -1.285156 C 6.246094 -1.191406 6.101562 -1.335938 6.246094 -1.523438 L 6.960938 -2.667969 C 8.054688 -4.335938 8.484375 -5.050781 8.484375 -5.625 C 8.484375 -6.101562 8.101562 -6.339844 7.484375 -6.339844 C 6.578125 -6.339844 5.050781 -5.292969 1.523438 -2.382812 C 0.476562 -1.574219 -0.191406 -1 -0.667969 -0.667969 C -0.808594 -0.570312 -1 -0.667969 -0.859375 -0.859375 C -0.285156 -1.859375 1.097656 -3.671875 2.621094 -5.050781 C 2.667969 -5.101562 2.71875 -5.195312 2.71875 -5.242188 C 2.71875 -5.433594 2.574219 -5.53125 2.429688 -5.53125 C 2.382812 -5.53125 2.289062 -5.53125 2.242188 -5.480469 C 0.570312 -3.957031 -1.765625 -0.859375 -1.765625 -0.191406 C -1.765625 0.09375 -1.621094 0.238281 -1.335938 0.285156 Z M -1.335938 0.285156 "/></g></g></g><g fill="#000000" fill-opacity="1"><g transform="translate(144.811072, 212.280812)"><g><path d="M 6.433594 0.046875 C 8.101562 0.046875 12.488281 -1.765625 15.15625 -3.671875 C 15.207031 -3.71875 15.253906 -3.8125 15.253906 -3.910156 C 15.253906 -4.050781 15.15625 -4.148438 15.015625 -4.148438 C 14.917969 -4.148438 14.871094 -4.148438 14.824219 -4.097656 C 12.15625 -2.097656 7.914062 -0.523438 6.433594 -0.523438 C 5.625 -0.523438 5.242188 -0.761719 5.242188 -1.382812 C 5.242188 -2.289062 6.007812 -3.433594 6.578125 -4.242188 C 6.910156 -4.71875 7.101562 -5.003906 7.101562 -5.195312 C 7.101562 -5.386719 6.960938 -5.53125 6.769531 -5.53125 C 6.53125 -5.53125 5.957031 -5.148438 4.957031 -4.386719 C 4.671875 -4.910156 4.335938 -5.101562 3.621094 -5.101562 C 2.003906 -5.101562 -2.289062 -2.429688 -2.289062 -0.808594 C -2.289062 -0.332031 -1.953125 -0.046875 -1.429688 -0.046875 C -0.09375 -0.046875 2.859375 -2.242188 4.863281 -3.671875 C 5.242188 -3.957031 5.578125 -4.195312 5.816406 -4.335938 C 5.910156 -4.433594 6.054688 -4.386719 5.910156 -4.242188 C 5.339844 -3.382812 4.71875 -2.335938 4.71875 -1.382812 C 4.71875 -0.429688 5.292969 0.046875 6.433594 0.046875 Z M -1.429688 -0.621094 C -1.667969 -0.621094 -1.765625 -0.667969 -1.765625 -0.808594 C -1.765625 -1.953125 2.003906 -4.574219 3.621094 -4.574219 C 4.148438 -4.574219 4.289062 -4.480469 4.480469 -4.097656 C 2.527344 -2.621094 -0.285156 -0.621094 -1.429688 -0.621094 Z M -1.429688 -0.621094 "/></g></g></g><g fill="#000000" fill-opacity="1"><g transform="translate(158.729672, 212.280812)"><g><path d="M -10.058594 12.109375 C -9.820312 12.109375 -9.535156 11.726562 -9.296875 11.34375 C -9.199219 11.203125 -9.199219 11.058594 -9.296875 11.011719 C -4.765625 3.910156 1 -3.527344 6.910156 -10.4375 C 11.058594 -10.628906 15.300781 -10.628906 19.351562 -10.488281 C 19.542969 -10.488281 19.640625 -10.582031 19.640625 -10.726562 C 19.640625 -10.867188 19.542969 -11.011719 19.402344 -11.011719 C 15.445312 -11.152344 11.390625 -11.152344 7.4375 -11.011719 C 10.011719 -14.015625 12.585938 -16.921875 15.15625 -19.6875 C 15.207031 -19.734375 15.207031 -19.828125 15.207031 -19.878906 C 15.207031 -20.019531 15.109375 -20.164062 14.917969 -20.164062 C 14.871094 -20.164062 14.777344 -20.117188 14.730469 -20.066406 C 12.058594 -17.160156 9.34375 -14.109375 6.671875 -10.964844 C 2.382812 -10.820312 -1.765625 -10.488281 -5.480469 -10.011719 C -5.625 -9.960938 -5.71875 -9.867188 -5.71875 -9.722656 C -5.71875 -9.582031 -5.578125 -9.4375 -5.433594 -9.4375 L -5.386719 -9.4375 C -1.859375 -9.914062 2.097656 -10.25 6.195312 -10.4375 C 0.191406 -3.382812 -5.578125 4.097656 -10.152344 11.296875 C -10.199219 11.390625 -10.25 11.488281 -10.296875 11.582031 L -10.34375 11.628906 C -10.4375 11.917969 -10.390625 12.109375 -10.058594 12.109375 Z M -10.058594 12.109375 "/></g></g></g><g fill="#000000" fill-opacity="1"><g transform="translate(165.831973, 212.280812)"><g/></g></g><g fill="#000000" fill-opacity="1"><g transform="translate(176.366253, 212.280812)"><g><path d="M 19.210938 0.523438 C 19.449219 0.523438 19.734375 0.191406 20.019531 -0.09375 C 20.117188 -0.238281 20.117188 -0.382812 20.019531 -0.429688 C 25.691406 -6.910156 29.507812 -12.058594 29.507812 -13.917969 C 29.507812 -14.539062 29.125 -14.871094 28.503906 -14.871094 C 26.695312 -14.871094 22.070312 -10.726562 17.730469 -6.101562 C 17.445312 -5.769531 17.351562 -5.910156 17.589844 -6.195312 C 19.066406 -8.390625 20.066406 -10.152344 20.066406 -11.25 C 20.066406 -12.011719 19.589844 -12.441406 18.734375 -12.441406 C 17.589844 -12.441406 16.0625 -11.679688 14.441406 -10.488281 C 15.015625 -11.726562 15.398438 -12.824219 15.398438 -13.679688 C 15.398438 -14.730469 14.777344 -15.398438 13.871094 -15.398438 C 11.867188 -15.398438 9.582031 -13.917969 7.199219 -11.203125 C 7.148438 -11.152344 7.148438 -11.105469 7.148438 -11.011719 C 7.148438 -10.867188 7.246094 -10.773438 7.386719 -10.773438 C 7.484375 -10.773438 7.578125 -10.773438 7.625 -10.867188 C 9.914062 -13.441406 12.058594 -14.824219 13.871094 -14.824219 C 14.492188 -14.824219 14.824219 -14.394531 14.824219 -13.679688 C 14.824219 -12.679688 14.300781 -11.25 13.488281 -9.773438 C 9.390625 -6.53125 5.050781 -1.382812 5.050781 -0.285156 C 5.050781 -0.046875 5.242188 0.144531 5.53125 0.144531 C 6.816406 0.144531 11.488281 -5.050781 13.917969 -9.4375 C 15.730469 -10.867188 17.492188 -11.867188 18.734375 -11.867188 C 19.257812 -11.867188 19.496094 -11.679688 19.496094 -11.25 C 19.496094 -9.722656 17.113281 -6.433594 15.253906 -3.8125 C 14.679688 -3.003906 14.15625 -2.289062 13.777344 -1.714844 C 13.679688 -1.574219 13.726562 -1.429688 13.871094 -1.335938 C 14.015625 -1.238281 14.15625 -1.238281 14.253906 -1.382812 C 18.207031 -6.292969 26.21875 -14.347656 28.503906 -14.347656 C 28.839844 -14.347656 28.933594 -14.203125 28.933594 -13.917969 C 28.933594 -12.25 24.976562 -6.910156 19.257812 -0.382812 C 19.066406 -0.144531 18.925781 0.046875 18.925781 0.191406 C 18.925781 0.382812 19.019531 0.523438 19.210938 0.523438 Z M 5.910156 -0.523438 C 5.671875 -0.429688 5.671875 -0.523438 5.769531 -0.714844 C 6.386719 -1.953125 8.867188 -4.910156 11.628906 -7.484375 C 12.347656 -8.152344 12.824219 -8.484375 12.773438 -8.4375 C 10.582031 -5.050781 7.246094 -1.285156 5.910156 -0.523438 Z M 5.910156 -0.523438 "/></g></g></g><g fill="#000000" fill-opacity="1"><g transform="translate(203.917456, 212.280812)"><g><path d="M 6.433594 0.046875 C 8.101562 0.046875 12.488281 -1.765625 15.15625 -3.671875 C 15.207031 -3.71875 15.253906 -3.8125 15.253906 -3.910156 C 15.253906 -4.050781 15.15625 -4.148438 15.015625 -4.148438 C 14.917969 -4.148438 14.871094 -4.148438 14.824219 -4.097656 C 12.15625 -2.097656 7.914062 -0.523438 6.433594 -0.523438 C 5.625 -0.523438 5.242188 -0.761719 5.242188 -1.382812 C 5.242188 -2.289062 6.007812 -3.433594 6.578125 -4.242188 C 6.910156 -4.71875 7.101562 -5.003906 7.101562 -5.195312 C 7.101562 -5.386719 6.960938 -5.53125 6.769531 -5.53125 C 6.53125 -5.53125 5.957031 -5.148438 4.957031 -4.386719 C 4.671875 -4.910156 4.335938 -5.101562 3.621094 -5.101562 C 2.003906 -5.101562 -2.289062 -2.429688 -2.289062 -0.808594 C -2.289062 -0.332031 -1.953125 -0.046875 -1.429688 -0.046875 C -0.09375 -0.046875 2.859375 -2.242188 4.863281 -3.671875 C 5.242188 -3.957031 5.578125 -4.195312 5.816406 -4.335938 C 5.910156 -4.433594 6.054688 -4.386719 5.910156 -4.242188 C 5.339844 -3.382812 4.71875 -2.335938 4.71875 -1.382812 C 4.71875 -0.429688 5.292969 0.046875 6.433594 0.046875 Z M -1.429688 -0.621094 C -1.667969 -0.621094 -1.765625 -0.667969 -1.765625 -0.808594 C -1.765625 -1.953125 2.003906 -4.574219 3.621094 -4.574219 C 4.148438 -4.574219 4.289062 -4.480469 4.480469 -4.097656 C 2.527344 -2.621094 -0.285156 -0.621094 -1.429688 -0.621094 Z M -1.429688 -0.621094 "/></g></g></g><g fill="#000000" fill-opacity="1"><g transform="translate(217.836062, 212.280812)"><g><path d="M -5.195312 5.910156 C -4.957031 5.910156 -4.386719 5.101562 -3.71875 4.289062 C -2.429688 2.71875 -0.523438 0.285156 0.621094 -0.859375 C 3.382812 -3.671875 5.386719 -5.003906 6.816406 -5.003906 C 7.148438 -5.003906 7.292969 -4.910156 7.292969 -4.71875 C 7.148438 -4.148438 5.816406 -2.574219 2.480469 -2.097656 C 2.335938 -2.097656 2.242188 -2.050781 2.144531 -1.90625 C 2.050781 -1.8125 2.050781 -1.714844 2.050781 -1.574219 C 2.289062 -0.667969 3.335938 0.953125 5.003906 0.953125 C 7.625 0.953125 12.347656 -1.667969 15.683594 -3.671875 C 15.730469 -3.71875 15.824219 -3.8125 15.824219 -3.910156 C 15.824219 -4.050781 15.683594 -4.148438 15.539062 -4.148438 L 15.398438 -4.148438 C 12.109375 -2.144531 7.484375 0.382812 5.003906 0.382812 C 3.671875 0.382812 2.8125 -0.761719 2.621094 -1.574219 C 6.101562 -2.097656 7.675781 -3.910156 7.816406 -4.671875 C 7.914062 -5.195312 7.484375 -5.53125 6.816406 -5.53125 C 5.195312 -5.53125 3.097656 -4.148438 0.238281 -1.285156 C -0.90625 -0.09375 -2.859375 2.335938 -3.382812 2.957031 C -4.625 4.574219 -4.671875 4.386719 -3.71875 2.957031 C -2.574219 1.238281 -0.859375 -1.046875 1.144531 -3.621094 C 11.25 -10.105469 20.878906 -21.019531 20.878906 -23.40625 C 20.878906 -23.929688 20.59375 -24.214844 20.066406 -24.214844 C 17.921875 -24.214844 7.769531 -12.824219 0.90625 -4.097656 L 0.859375 -4.097656 C -2.859375 0.621094 -5.578125 4.574219 -5.578125 5.53125 C -5.578125 5.769531 -5.433594 5.910156 -5.195312 5.910156 Z M 2.242188 -5.003906 C 8.960938 -13.394531 18.207031 -23.644531 20.066406 -23.644531 C 20.304688 -23.644531 20.304688 -23.59375 20.304688 -23.40625 C 20.304688 -21.308594 11.726562 -11.535156 2.242188 -5.003906 Z M 2.242188 -5.003906 "/></g></g></g><g fill="#000000" fill-opacity="1"><g transform="translate(232.278987, 212.280812)"><g><path d="M 5.625 0 C 7.292969 0 11.917969 -2.050781 14.347656 -3.71875 C 14.394531 -3.765625 14.441406 -3.8125 14.441406 -3.910156 C 14.441406 -4.050781 14.347656 -4.195312 14.203125 -4.195312 C 14.109375 -4.195312 14.0625 -4.195312 14.015625 -4.148438 C 11.535156 -2.429688 7.101562 -0.523438 5.625 -0.523438 C 4.765625 -0.523438 4.433594 -0.808594 4.433594 -1.429688 C 4.433594 -2.335938 5.480469 -3.527344 6.195312 -4.335938 C 6.722656 -4.957031 7.148438 -5.578125 6.484375 -5.578125 C 6.195312 -5.578125 5.578125 -5.050781 4.050781 -3.8125 C 1.621094 -1.859375 0.238281 -0.90625 -0.332031 -0.90625 C -0.429688 -0.90625 -0.476562 -1 -0.476562 -1.144531 C -0.476562 -1.765625 0.476562 -3.050781 2.097656 -4.480469 C 2.144531 -4.527344 2.191406 -4.574219 2.191406 -4.671875 C 2.191406 -4.8125 2.050781 -4.957031 1.90625 -4.957031 C 1.8125 -4.957031 1.765625 -4.910156 1.714844 -4.863281 C -0.046875 -3.289062 -1.046875 -1.953125 -1.046875 -1.097656 C -1.046875 -0.667969 -0.761719 -0.382812 -0.332031 -0.382812 C 0.429688 -0.382812 1.8125 -1.285156 4.386719 -3.382812 C 4.957031 -3.8125 4.910156 -3.71875 4.574219 -3.242188 C 4.195312 -2.621094 3.910156 -2.003906 3.910156 -1.429688 C 3.910156 -0.476562 4.480469 0 5.625 0 Z M 5.625 0 "/></g></g></g><g fill="#000000" fill-opacity="1"><g transform="translate(245.387253, 212.280812)"><g><path d="M 0.285156 2.097656 C 2.144531 2.097656 7.53125 -0.859375 11.582031 -3.671875 C 11.628906 -3.71875 11.679688 -3.765625 11.679688 -3.859375 C 11.679688 -4.003906 11.582031 -4.148438 11.441406 -4.148438 C 11.34375 -4.148438 11.296875 -4.148438 11.25 -4.097656 C 6.722656 -0.953125 1.8125 1.574219 0.285156 1.574219 C -0.523438 1.574219 -0.761719 1.382812 -0.761719 0.714844 C -0.761719 -0.238281 -0.144531 -1.714844 0.953125 -3.433594 C 9.058594 -8.339844 23.214844 -20.734375 23.214844 -23.5 C 23.214844 -24.121094 22.832031 -24.453125 22.164062 -24.453125 C 18.160156 -24.453125 -1.285156 -4.910156 -1.285156 0.714844 C -1.285156 1.667969 -0.808594 2.097656 0.285156 2.097656 Z M 1.667969 -4.480469 C 6.910156 -12.203125 19.210938 -23.929688 22.164062 -23.929688 C 22.546875 -23.929688 22.691406 -23.785156 22.691406 -23.5 C 22.691406 -21.210938 10.105469 -9.914062 1.667969 -4.480469 Z M 1.667969 -4.480469 "/></g></g></g><g fill="#000000" fill-opacity="1"><g transform="translate(255.778529, 212.280812)"><g><path d="M -1.285156 0.761719 C -1.097656 0.761719 -0.859375 0.476562 -0.523438 0.191406 C 0.09375 -0.382812 1.144531 -1.335938 2.289062 -2.191406 C 4.242188 -3.621094 5.578125 -4.386719 6.246094 -4.386719 C 6.484375 -4.386719 6.625 -4.335938 6.625 -4.097656 C 6.625 -3.433594 6.054688 -2.527344 5.292969 -1.765625 L 5.050781 -1.765625 C 2.667969 -1.429688 1.523438 -1.238281 1.523438 -0.523438 C 1.523438 0 1.953125 0.332031 2.527344 0.332031 C 3.480469 0.332031 4.625 -0.382812 5.578125 -1.285156 C 8.101562 -1.621094 11.441406 -2.097656 13.964844 -3.671875 C 14.015625 -3.71875 14.0625 -3.8125 14.0625 -3.910156 C 14.0625 -4.050781 13.964844 -4.148438 13.824219 -4.148438 L 13.679688 -4.148438 C 11.441406 -2.765625 8.53125 -2.242188 6.148438 -1.90625 C 6.769531 -2.621094 7.148438 -3.433594 7.148438 -4.097656 C 7.148438 -4.625 6.863281 -4.957031 6.339844 -4.957031 C 5.480469 -4.957031 4.050781 -4.148438 2.003906 -2.621094 C 0.761719 -1.765625 -0.285156 -0.808594 -0.476562 -0.621094 C -0.859375 -0.285156 -0.953125 -0.285156 -0.761719 -0.667969 C -0.332031 -1.429688 0.382812 -2.527344 1.285156 -3.765625 C 11.203125 -10.199219 20.734375 -21.019531 20.734375 -23.40625 C 20.734375 -23.929688 20.449219 -24.214844 19.925781 -24.214844 C 17.921875 -24.214844 6.246094 -11.441406 0.953125 -4.195312 L 0.90625 -4.148438 C -0.667969 -2.003906 -1.667969 -0.285156 -1.667969 0.382812 C -1.667969 0.570312 -1.523438 0.761719 -1.285156 0.761719 Z M 2.289062 -5.101562 C 7.863281 -12.296875 18.257812 -23.644531 19.925781 -23.644531 C 20.164062 -23.644531 20.210938 -23.59375 20.210938 -23.40625 C 20.210938 -21.308594 11.628906 -11.535156 2.289062 -5.101562 Z M 2.527344 -0.238281 C 2.242188 -0.238281 2.097656 -0.332031 2.097656 -0.523438 C 2.097656 -0.667969 2.71875 -0.859375 4.574219 -1.144531 C 3.910156 -0.570312 3.144531 -0.238281 2.527344 -0.238281 Z M 2.527344 -0.238281 "/></g></g></g><g fill="#000000" fill-opacity="1"><g transform="translate(268.505468, 212.280812)"><g><path d="M 6.433594 0.046875 C 8.101562 0.046875 12.488281 -1.765625 15.15625 -3.671875 C 15.207031 -3.71875 15.253906 -3.8125 15.253906 -3.910156 C 15.253906 -4.050781 15.15625 -4.148438 15.015625 -4.148438 C 14.917969 -4.148438 14.871094 -4.148438 14.824219 -4.097656 C 12.15625 -2.097656 7.914062 -0.523438 6.433594 -0.523438 C 5.625 -0.523438 5.242188 -0.761719 5.242188 -1.382812 C 5.242188 -2.289062 6.007812 -3.433594 6.578125 -4.242188 C 6.910156 -4.71875 7.101562 -5.003906 7.101562 -5.195312 C 7.101562 -5.386719 6.960938 -5.53125 6.769531 -5.53125 C 6.53125 -5.53125 5.957031 -5.148438 4.957031 -4.386719 C 4.671875 -4.910156 4.335938 -5.101562 3.621094 -5.101562 C 2.003906 -5.101562 -2.289062 -2.429688 -2.289062 -0.808594 C -2.289062 -0.332031 -1.953125 -0.046875 -1.429688 -0.046875 C -0.09375 -0.046875 2.859375 -2.242188 4.863281 -3.671875 C 5.242188 -3.957031 5.578125 -4.195312 5.816406 -4.335938 C 5.910156 -4.433594 6.054688 -4.386719 5.910156 -4.242188 C 5.339844 -3.382812 4.71875 -2.335938 4.71875 -1.382812 C 4.71875 -0.429688 5.292969 0.046875 6.433594 0.046875 Z M -1.429688 -0.621094 C -1.667969 -0.621094 -1.765625 -0.667969 -1.765625 -0.808594 C -1.765625 -1.953125 2.003906 -4.574219 3.621094 -4.574219 C 4.148438 -4.574219 4.289062 -4.480469 4.480469 -4.097656 C 2.527344 -2.621094 -0.285156 -0.621094 -1.429688 -0.621094 Z M -1.429688 -0.621094 "/></g></g></g><g fill="#000000" fill-opacity="1"><g transform="translate(282.424061, 212.280812)"><g><path d="M -16.207031 19.496094 C -13.011719 19.496094 -4.097656 12.203125 2.050781 5.433594 C 2.765625 4.625 3.480469 3.8125 4.097656 2.957031 C 8.53125 0.332031 12.347656 -2.242188 14.441406 -3.621094 C 14.492188 -3.671875 14.539062 -3.765625 14.539062 -3.859375 C 14.539062 -4.003906 14.394531 -4.097656 14.253906 -4.097656 C 14.203125 -4.097656 14.15625 -4.097656 14.109375 -4.050781 C 11.867188 -2.480469 8.914062 -0.523438 4.910156 1.8125 C 7.148438 -1.285156 8.53125 -4.148438 8.53125 -4.910156 C 8.53125 -5.292969 8.339844 -5.53125 7.960938 -5.53125 C 7.625 -5.53125 7.007812 -5.101562 5.050781 -3.671875 C 3.050781 -2.144531 0.570312 -0.285156 -0.429688 -0.285156 C -0.667969 -0.285156 -0.714844 -0.332031 -0.714844 -0.476562 C -0.714844 -1.191406 1.335938 -3.957031 2.765625 -5.195312 C 2.8125 -5.242188 2.859375 -5.292969 2.859375 -5.386719 C 2.859375 -5.53125 2.71875 -5.671875 2.574219 -5.671875 C 2.527344 -5.671875 2.480469 -5.625 2.429688 -5.625 C 1.144531 -4.527344 -1.285156 -1.523438 -1.285156 -0.476562 C -1.285156 0 -0.953125 0.285156 -0.429688 0.285156 C 0.761719 0.285156 3.382812 -1.714844 5.433594 -3.195312 C 6.671875 -4.148438 7.339844 -4.671875 7.722656 -4.863281 C 7.863281 -4.957031 7.960938 -4.863281 7.960938 -4.71875 C 7.625 -3.242188 5.242188 0.523438 3.71875 2.527344 L 3.382812 2.71875 L -4.003906 7.148438 C -13.15625 12.824219 -17.351562 16.253906 -17.351562 18.398438 C -17.351562 19.066406 -16.875 19.496094 -16.207031 19.496094 Z M -16.207031 18.925781 C -16.589844 18.925781 -16.777344 18.734375 -16.777344 18.398438 C -16.777344 16.539062 -12.585938 13.109375 -3.71875 7.625 C -1.574219 6.292969 0.667969 5.003906 2.8125 3.71875 L 1.667969 5.050781 C -4.957031 12.394531 -13.394531 18.925781 -16.207031 18.925781 Z M -16.207031 18.925781 "/></g></g></g></svg>