<svg xmlns="http://www.w3.org/2000/svg" xmlns:xlink="http://www.w3.org/1999/xlink" width="400" zoomAndPan="magnify" viewBox="0 0 300 299.999988" height="400" preserveAspectRatio="xMidYMid meet" version="1.0"><defs><g/><clipPath id="31d13f01d2"><path d="M 239.730469 106.1875 L 249.429688 106.1875 L 249.429688 116 L 239.730469 116 Z M 239.730469 106.1875 " clip-rule="nonzero"/></clipPath><clipPath id="49eb990036"><path d="M 202.207031 170.265625 L 217.316406 170.265625 L 217.316406 185.246094 L 202.207031 185.246094 Z M 202.207031 170.265625 " clip-rule="nonzero"/></clipPath><clipPath id="1850f0429a"><path d="M 46.25 86 L 62 86 L 62 102 L 46.25 102 Z M 46.25 86 " clip-rule="nonzero"/></clipPath></defs><path fill="#bfbfbf" d="M 207.164062 113.269531 C 207.164062 115.929688 205.011719 118.089844 202.351562 118.089844 C 199.695312 118.089844 197.542969 115.929688 197.542969 113.269531 C 197.542969 110.605469 199.695312 108.449219 202.351562 108.449219 C 205.011719 108.449219 207.164062 110.605469 207.164062 113.269531 " fill-opacity="1" fill-rule="nonzero"/><path fill="#bfbfbf" d="M 192.253906 64.507812 C 192.253906 67.171875 190.097656 69.328125 187.441406 69.328125 C 184.785156 69.328125 182.628906 67.171875 182.628906 64.507812 C 182.628906 61.847656 184.785156 59.6875 187.441406 59.6875 C 190.097656 59.6875 192.253906 61.847656 192.253906 64.507812 " fill-opacity="1" fill-rule="nonzero"/><path fill="#bfbfbf" d="M 225.226562 52.40625 C 225.226562 55.070312 223.070312 57.226562 220.414062 57.226562 C 217.757812 57.226562 215.605469 55.070312 215.605469 52.40625 C 215.605469 49.746094 217.757812 47.585938 220.414062 47.585938 C 223.070312 47.585938 225.226562 49.746094 225.226562 52.40625 " fill-opacity="1" fill-rule="nonzero"/><g clip-path="url(#31d13f01d2)"><path fill="#bfbfbf" d="M 249.429688 111.097656 C 249.429688 113.761719 247.273438 115.917969 244.617188 115.917969 C 241.957031 115.917969 239.804688 113.761719 239.804688 111.097656 C 239.804688 108.4375 241.957031 106.277344 244.617188 106.277344 C 247.273438 106.277344 249.429688 108.4375 249.429688 111.097656 " fill-opacity="1" fill-rule="nonzero"/></g><path fill="#bfbfbf" d="M 243.429688 69.328125 C 243.429688 71.992188 241.277344 74.148438 238.621094 74.148438 C 235.960938 74.148438 233.808594 71.992188 233.808594 69.328125 C 233.808594 66.667969 235.960938 64.507812 238.621094 64.507812 C 241.277344 64.507812 243.429688 66.667969 243.429688 69.328125 " fill-opacity="1" fill-rule="nonzero"/><path fill="#bfbfbf" d="M 211.824219 154.355469 C 211.824219 157.015625 209.671875 159.171875 207.015625 159.171875 C 204.355469 159.171875 202.203125 157.015625 202.203125 154.355469 C 202.203125 151.691406 204.355469 149.535156 207.015625 149.535156 C 209.671875 149.535156 211.824219 151.691406 211.824219 154.355469 " fill-opacity="1" fill-rule="nonzero"/><path fill="#bfbfbf" d="M 243.429688 145.703125 C 243.429688 148.363281 241.277344 150.523438 238.621094 150.523438 C 235.960938 150.523438 233.808594 148.363281 233.808594 145.703125 C 233.808594 143.039062 235.960938 140.882812 238.621094 140.882812 C 241.277344 140.882812 243.429688 143.039062 243.429688 145.703125 " fill-opacity="1" fill-rule="nonzero"/><path fill="#bfbfbf" d="M 126.570312 108.449219 C 126.570312 111.109375 124.417969 113.269531 121.761719 113.269531 C 119.101562 113.269531 116.949219 111.109375 116.949219 108.449219 C 116.949219 105.785156 119.101562 103.628906 121.761719 103.628906 C 124.417969 103.628906 126.570312 105.785156 126.570312 108.449219 " fill-opacity="1" fill-rule="nonzero"/><path fill="#bfbfbf" d="M 182.847656 87.800781 C 182.847656 90.464844 180.691406 92.621094 178.035156 92.621094 C 175.378906 92.621094 173.226562 90.464844 173.226562 87.800781 C 173.226562 85.140625 175.378906 82.984375 178.035156 82.984375 C 180.691406 82.984375 182.847656 85.140625 182.847656 87.800781 " fill-opacity="1" fill-rule="nonzero"/><path fill="#bfbfbf" d="M 152.214844 124.339844 C 152.214844 127 150.0625 129.160156 147.40625 129.160156 C 144.75 129.160156 142.59375 127 142.59375 124.339844 C 142.59375 121.675781 144.75 119.519531 147.40625 119.519531 C 150.0625 119.519531 152.214844 121.675781 152.214844 124.339844 " fill-opacity="1" fill-rule="nonzero"/><path fill="#bfbfbf" d="M 77.816406 59.6875 C 77.816406 62.351562 75.660156 64.507812 73.003906 64.507812 C 70.347656 64.507812 68.191406 62.351562 68.191406 59.6875 C 68.191406 57.027344 70.347656 54.867188 73.003906 54.867188 C 75.660156 54.867188 77.816406 57.027344 77.816406 59.6875 " fill-opacity="1" fill-rule="nonzero"/><path fill="#bfbfbf" d="M 70.859375 115.097656 C 70.859375 117.761719 68.703125 119.917969 66.046875 119.917969 C 63.386719 119.917969 61.234375 117.761719 61.234375 115.097656 C 61.234375 112.4375 63.386719 110.277344 66.046875 110.277344 C 68.703125 110.277344 70.859375 112.4375 70.859375 115.097656 " fill-opacity="1" fill-rule="nonzero"/><path fill="#bfbfbf" d="M 95.792969 133.582031 C 95.792969 136.242188 93.640625 138.398438 90.984375 138.398438 C 88.324219 138.398438 86.171875 136.242188 86.171875 133.582031 C 86.171875 130.917969 88.324219 128.761719 90.984375 128.761719 C 93.640625 128.761719 95.792969 130.917969 95.792969 133.582031 " fill-opacity="1" fill-rule="nonzero"/><path fill="#bfbfbf" d="M 144.761719 34.820312 C 144.761719 37.480469 142.605469 39.640625 139.949219 39.640625 C 137.292969 39.640625 135.136719 37.480469 135.136719 34.820312 C 135.136719 32.15625 137.292969 30 139.949219 30 C 142.605469 30 144.761719 32.15625 144.761719 34.820312 " fill-opacity="1" fill-rule="nonzero"/><path fill="#bfbfbf" d="M 168.414062 44.457031 C 168.414062 47.121094 166.257812 49.277344 163.601562 49.277344 C 160.945312 49.277344 158.789062 47.121094 158.789062 44.457031 C 158.789062 41.796875 160.945312 39.640625 163.601562 39.640625 C 166.257812 39.640625 168.414062 41.796875 168.414062 44.457031 " fill-opacity="1" fill-rule="nonzero"/><path fill="#bfbfbf" d="M 121.761719 71.457031 C 121.761719 74.117188 119.605469 76.277344 116.949219 76.277344 C 114.292969 76.277344 112.136719 74.117188 112.136719 71.457031 C 112.136719 68.792969 114.292969 66.636719 116.949219 66.636719 C 119.605469 66.636719 121.761719 68.792969 121.761719 71.457031 " fill-opacity="1" fill-rule="nonzero"/><path fill="#bfbfbf" d="M 140.640625 38.410156 L 135.675781 58.519531 L 149.476562 50.699219 Z M 119.109375 71.433594 L 122.320312 99.78125 L 130.988281 64.703125 Z M 123.695312 107.011719 L 158.414062 108.820312 L 176.09375 87.730469 L 151.277344 53.207031 L 134.660156 62.625 Z M 189.339844 65.464844 L 202.984375 109.503906 L 236.535156 69.425781 L 221.121094 54.175781 Z M 74.308594 61.589844 L 68.066406 110.390625 L 114.183594 71.371094 Z M 162.25 109.019531 L 200.234375 111 L 186.109375 65.394531 L 163.429688 46.320312 L 153.964844 51.683594 L 179.976562 87.875 Z M 122.300781 110.015625 L 98.101562 131.15625 L 146.59375 122.917969 L 155.941406 111.769531 Z M 149.828125 123.839844 L 207.175781 152.714844 L 237.238281 144.488281 L 241.660156 112.703125 L 204.410156 114.109375 L 204.46875 114.296875 L 202.339844 114.183594 L 198.957031 114.3125 L 199.199219 114.019531 L 159.78125 111.96875 Z M 206.851562 155.992188 L 147.164062 125.9375 L 87.878906 136.007812 L 120.144531 107.820312 L 116.273438 73.625 L 64.023438 117.835938 L 71.699219 57.789062 L 117.078125 68.917969 L 118.675781 67.570312 L 118.734375 68.117188 L 132 60.601562 L 139.257812 31.226562 L 152.160156 49.175781 L 163.773438 42.597656 L 187.753906 62.765625 L 221.90625 50.636719 L 240.703125 69.230469 L 205.746094 110.980469 L 245.203125 109.496094 L 240 146.917969 L 206.851562 155.992188 " fill-opacity="1" fill-rule="nonzero"/><path fill="#bfbfbf" d="M 205.488281 154.527344 L 200.828125 113.441406 L 203.875 113.09375 L 208.539062 154.179688 L 205.488281 154.527344 " fill-opacity="1" fill-rule="nonzero"/><path fill="#bfbfbf" d="M 90.070312 134.816406 L 65.132812 116.332031 L 66.957031 113.863281 L 91.894531 132.347656 L 90.070312 134.816406 " fill-opacity="1" fill-rule="nonzero"/><path fill="#38b6ff" d="M 248.722656 89.625 C 248.722656 93.75 245.382812 97.09375 241.265625 97.09375 C 237.144531 97.09375 233.808594 93.75 233.808594 89.625 C 233.808594 85.5 237.144531 82.15625 241.265625 82.15625 C 245.382812 82.15625 248.722656 85.5 248.722656 89.625 " fill-opacity="1" fill-rule="nonzero"/><path fill="#38b6ff" d="M 194.898438 42.289062 C 194.898438 46.414062 191.558594 49.757812 187.441406 49.757812 C 183.320312 49.757812 179.984375 46.414062 179.984375 42.289062 C 179.984375 38.164062 183.320312 34.820312 187.441406 34.820312 C 191.558594 34.820312 194.898438 38.164062 194.898438 42.289062 " fill-opacity="1" fill-rule="nonzero"/><path fill="#38b6ff" d="M 236.425781 130.929688 C 236.425781 135.058594 233.089844 138.398438 228.96875 138.398438 C 224.851562 138.398438 221.511719 135.058594 221.511719 130.929688 C 221.511719 126.804688 224.851562 123.460938 228.96875 123.460938 C 233.089844 123.460938 236.425781 126.804688 236.425781 130.929688 " fill-opacity="1" fill-rule="nonzero"/><path fill="#38b6ff" d="M 191.558594 149.535156 C 191.558594 153.660156 188.222656 157.003906 184.101562 157.003906 C 179.984375 157.003906 176.644531 153.660156 176.644531 149.535156 C 176.644531 145.410156 179.984375 142.066406 184.101562 142.066406 C 188.222656 142.066406 191.558594 145.410156 191.558594 149.535156 " fill-opacity="1" fill-rule="nonzero"/><g clip-path="url(#49eb990036)"><path fill="#38b6ff" d="M 217.265625 177.773438 C 217.265625 181.902344 213.925781 185.246094 209.808594 185.246094 C 205.691406 185.246094 202.351562 181.902344 202.351562 177.773438 C 202.351562 173.648438 205.691406 170.304688 209.808594 170.304688 C 213.925781 170.304688 217.265625 173.648438 217.265625 177.773438 " fill-opacity="1" fill-rule="nonzero"/></g><path fill="#38b6ff" d="M 154.859375 70.164062 C 154.859375 74.289062 151.523438 77.632812 147.40625 77.632812 C 143.289062 77.632812 139.949219 74.289062 139.949219 70.164062 C 139.949219 66.039062 143.289062 62.695312 147.40625 62.695312 C 151.523438 62.695312 154.859375 66.039062 154.859375 70.164062 " fill-opacity="1" fill-rule="nonzero"/><path fill="#38b6ff" d="M 159.734375 103.628906 C 159.734375 107.753906 156.394531 111.097656 152.277344 111.097656 C 148.160156 111.097656 144.820312 107.753906 144.820312 103.628906 C 144.820312 99.503906 148.160156 96.160156 152.277344 96.160156 C 156.394531 96.160156 159.734375 99.503906 159.734375 103.628906 " fill-opacity="1" fill-rule="nonzero"/><path fill="#38b6ff" d="M 122.8125 130.929688 C 122.8125 135.058594 119.476562 138.398438 115.355469 138.398438 C 111.238281 138.398438 107.902344 135.058594 107.902344 130.929688 C 107.902344 126.804688 111.238281 123.460938 115.355469 123.460938 C 119.476562 123.460938 122.8125 126.804688 122.8125 130.929688 " fill-opacity="1" fill-rule="nonzero"/><path fill="#38b6ff" d="M 107.902344 84.066406 C 107.902344 88.191406 104.5625 91.535156 100.445312 91.535156 C 96.328125 91.535156 92.988281 88.191406 92.988281 84.066406 C 92.988281 79.941406 96.328125 76.597656 100.445312 76.597656 C 104.5625 76.597656 107.902344 79.941406 107.902344 84.066406 " fill-opacity="1" fill-rule="nonzero"/><path fill="#38b6ff" d="M 112.710938 47.105469 C 112.710938 51.234375 109.375 54.578125 105.257812 54.578125 C 101.140625 54.578125 97.800781 51.234375 97.800781 47.105469 C 97.800781 42.980469 101.140625 39.640625 105.257812 39.640625 C 109.375 39.640625 112.710938 42.980469 112.710938 47.105469 " fill-opacity="1" fill-rule="nonzero"/><g clip-path="url(#1850f0429a)"><path fill="#38b6ff" d="M 61.234375 93.65625 C 61.234375 97.78125 57.894531 101.128906 53.777344 101.128906 C 49.660156 101.128906 46.320312 97.78125 46.320312 93.65625 C 46.320312 89.53125 49.660156 86.1875 53.777344 86.1875 C 57.894531 86.1875 61.234375 89.53125 61.234375 93.65625 " fill-opacity="1" fill-rule="nonzero"/></g><path fill="#38b6ff" d="M 56.480469 95.1875 L 55.683594 91.320312 L 98.671875 82.417969 L 103.671875 43.992188 L 147.28125 67.847656 L 186.316406 40.664062 L 188.566406 43.910156 L 147.53125 72.484375 L 106.839844 50.222656 L 102.21875 85.71875 L 56.480469 95.1875 " fill-opacity="1" fill-rule="nonzero"/><path fill="#38b6ff" d="M 57.429688 94.695312 L 54.734375 91.8125 L 103.910156 45.667969 L 106.605469 48.550781 L 57.429688 94.695312 " fill-opacity="1" fill-rule="nonzero"/><path fill="#38b6ff" d="M 149.46875 104.757812 L 99.789062 87.183594 L 101.101562 83.460938 L 150.78125 101.03125 L 149.46875 104.757812 " fill-opacity="1" fill-rule="nonzero"/><path fill="#38b6ff" d="M 116.546875 132.503906 L 114.164062 129.355469 L 151.085938 101.320312 L 153.46875 104.46875 L 116.546875 132.503906 " fill-opacity="1" fill-rule="nonzero"/><path fill="#38b6ff" d="M 183.382812 152.007812 L 153.222656 107.015625 L 156.5 104.8125 L 184.820312 147.066406 L 228.179688 128.097656 L 229.757812 131.71875 L 183.382812 152.007812 " fill-opacity="1" fill-rule="nonzero"/><path fill="#38b6ff" d="M 229.519531 133.726562 L 225.78125 132.476562 L 238.402344 94.554688 L 152.527344 105.589844 L 152.027344 101.667969 L 244.128906 89.835938 L 229.519531 133.726562 " fill-opacity="1" fill-rule="nonzero"/><path fill="#38b6ff" d="M 240.890625 91.5625 L 147.03125 73.394531 L 147.777344 69.515625 L 241.636719 87.683594 L 240.890625 91.5625 " fill-opacity="1" fill-rule="nonzero"/><path fill="#38b6ff" d="M 239.960938 91.109375 L 186.140625 43.773438 L 188.742188 40.804688 L 242.566406 88.140625 L 239.960938 91.109375 " fill-opacity="1" fill-rule="nonzero"/><path fill="#38b6ff" d="M 152.210938 103.105469 C 150.511719 103.105469 150.257812 101.351562 150.066406 100.054688 C 149.945312 99.21875 149.785156 97.996094 149.589844 96.417969 C 149.261719 93.773438 148.828125 90.085938 148.304688 85.464844 C 147.410156 77.59375 146.546875 69.621094 146.539062 69.542969 L 150.457031 69.117188 C 151.683594 80.457031 153.769531 99.011719 154.140625 100.527344 C 153.988281 99.914062 153.234375 99.058594 152.097656 99.160156 L 152.457031 103.09375 C 152.371094 103.101562 152.289062 103.105469 152.210938 103.105469 " fill-opacity="1" fill-rule="nonzero"/><path fill="#38b6ff" d="M 113.488281 131.558594 L 99.695312 90.25 L 103.433594 88.996094 L 117.226562 130.304688 L 113.488281 131.558594 " fill-opacity="1" fill-rule="nonzero"/><path fill="#38b6ff" d="M 182.660156 150.578125 L 114.582031 133.15625 L 52.75 95.34375 L 54.804688 91.972656 L 116.132812 129.476562 L 183.636719 146.75 L 182.660156 150.578125 " fill-opacity="1" fill-rule="nonzero"/><path fill="#38b6ff" d="M 210.464844 181.515625 L 184.429688 151.824219 L 187.390625 149.21875 L 209.15625 174.035156 L 226.28125 130.210938 L 229.953125 131.652344 L 210.464844 181.515625 " fill-opacity="1" fill-rule="nonzero"/><g fill="#f5f1eb" fill-opacity="1"><g transform="translate(19.189415, 200.042267)"><g><path d="M 12.34375 0 L 14.90625 -7.746094 L 26.144531 -7.746094 L 28.765625 0 L 40.003906 0 L 40.003906 -7.746094 L 37.328125 -7.746094 L 26.84375 -41.34375 L 14.675781 -41.34375 L 3.84375 -7.746094 L 1.164062 -7.746094 L 1.164062 0 Z M 20.90625 -27.195312 L 23.992188 -15.78125 L 17.351562 -15.78125 Z M 20.90625 -27.195312 "/></g></g></g><g fill="#f5f1eb" fill-opacity="1"><g transform="translate(60.350415, 200.042267)"><g><path d="M 2.269531 0 L 39.25 0 L 39.25 -10.832031 L 32.433594 -10.832031 C 32.433594 -9.140625 32.261719 -8.675781 31.386719 -8.386719 L 17.179688 -8.386719 L 39.25 -33.542969 L 39.25 -41.34375 L 3.4375 -41.34375 L 3.4375 -31.097656 L 10.25 -31.097656 C 10.25 -32.726562 10.367188 -33.25 11.238281 -33.542969 L 24.339844 -33.542969 L 2.269531 -8.386719 Z M 2.269531 0 "/></g></g></g><g fill="#f5f1eb" fill-opacity="1"><g transform="translate(101.802507, 200.042267)"><g><path d="M 12.34375 0 L 14.90625 -7.746094 L 26.144531 -7.746094 L 28.765625 0 L 40.003906 0 L 40.003906 -7.746094 L 37.328125 -7.746094 L 26.84375 -41.34375 L 14.675781 -41.34375 L 3.84375 -7.746094 L 1.164062 -7.746094 L 1.164062 0 Z M 20.90625 -27.195312 L 23.992188 -15.78125 L 17.351562 -15.78125 Z M 20.90625 -27.195312 "/></g></g></g><g fill="#f5f1eb" fill-opacity="1"><g transform="translate(142.963507, 200.042267)"><g><path d="M 15.375 0 L 15.375 -27.484375 L 22.070312 -9.316406 L 31.5625 -9.316406 L 38.492188 -27.425781 L 38.492188 0 L 49.03125 0 L 49.03125 -33.65625 L 51.59375 -33.65625 L 51.59375 -41.402344 L 35.054688 -41.402344 L 26.726562 -21.664062 L 19.214844 -41.402344 L 2.269531 -41.402344 L 2.269531 -33.65625 L 4.832031 -33.65625 L 4.832031 0 Z M 15.375 0 "/></g></g></g><g fill="#f5f1eb" fill-opacity="1"><g transform="translate(196.175896, 200.042267)"><g><path d="M 12.34375 0 L 14.90625 -7.746094 L 26.144531 -7.746094 L 28.765625 0 L 40.003906 0 L 40.003906 -7.746094 L 37.328125 -7.746094 L 26.84375 -41.34375 L 14.675781 -41.34375 L 3.84375 -7.746094 L 1.164062 -7.746094 L 1.164062 0 Z M 20.90625 -27.195312 L 23.992188 -15.78125 L 17.351562 -15.78125 Z M 20.90625 -27.195312 "/></g></g></g><g fill="#f5f1eb" fill-opacity="1"><g transform="translate(237.336896, 200.042267)"><g><path d="M 8.328125 -32.144531 C 8.328125 -32.960938 8.558594 -33.425781 9.085938 -33.601562 L 14.617188 -33.601562 L 14.617188 -7.746094 L 11.996094 -7.746094 L 11.996094 0 L 27.777344 0 L 27.777344 -7.746094 L 25.214844 -7.746094 L 25.214844 -33.601562 L 30.6875 -33.601562 C 31.210938 -33.367188 31.503906 -33.015625 31.503906 -32.144531 L 31.503906 -31.097656 L 38.082031 -31.097656 L 38.082031 -41.34375 L 1.746094 -41.34375 L 1.746094 -31.097656 L 8.328125 -31.097656 Z M 8.328125 -32.144531 "/></g></g></g><g fill="#f5f1eb" fill-opacity="1"><g transform="translate(34.409895, 237.551951)"><g><path d="M 10.488281 0 L 10.488281 -18.753906 L 15.058594 -6.355469 L 21.535156 -6.355469 L 26.261719 -18.710938 L 26.261719 0 L 33.453125 0 L 33.453125 -22.964844 L 35.199219 -22.964844 L 35.199219 -28.246094 L 23.917969 -28.246094 L 18.234375 -14.777344 L 13.109375 -28.246094 L 1.550781 -28.246094 L 1.550781 -22.964844 L 3.296875 -22.964844 L 3.296875 0 Z M 10.488281 0 "/></g></g></g><g fill="#f5f1eb" fill-opacity="1"><g transform="translate(70.721729, 237.551951)"><g><path d="M 8.421875 0 L 10.171875 -5.285156 L 17.839844 -5.285156 L 19.625 0 L 27.292969 0 L 27.292969 -5.285156 L 25.464844 -5.285156 L 18.316406 -28.207031 L 10.011719 -28.207031 L 2.621094 -5.285156 L 0.792969 -5.285156 L 0.792969 0 Z M 14.261719 -18.554688 L 16.367188 -10.765625 L 11.839844 -10.765625 Z M 14.261719 -18.554688 "/></g></g></g><g fill="#f5f1eb" fill-opacity="1"><g transform="translate(98.809753, 237.551951)"><g><path d="M 20.859375 -28.207031 L 10.886719 -18.472656 L 10.886719 -28.207031 L 1.507812 -28.207031 L 1.507812 -22.921875 L 3.296875 -22.921875 L 3.296875 0 L 10.925781 0 L 10.925781 -8.660156 L 11.601562 -9.335938 L 19.03125 -2.34375 C 21.375 -0.160156 22.964844 0.238281 24.355469 0.238281 C 24.832031 0.238281 25.507812 0.238281 26.421875 -0.121094 L 28.40625 -4.488281 C 27.769531 -4.609375 26.699219 -5.164062 24.632812 -7.03125 L 16.648438 -14.222656 L 24.234375 -21.613281 C 25.347656 -22.605469 26.460938 -22.804688 27.09375 -22.921875 L 27.253906 -22.921875 L 27.253906 -28.207031 Z M 20.859375 -28.207031 "/></g></g></g><g fill="#f5f1eb" fill-opacity="1"><g transform="translate(127.692353, 237.551951)"><g><path d="M 25.546875 -28.246094 L 17.996094 -28.246094 L 17.996094 -11.957031 C 17.996094 -5.5625 15.496094 -5.046875 13.707031 -5.046875 C 11.917969 -5.046875 9.414062 -5.523438 9.414062 -12 L 9.414062 -28.246094 L 1.867188 -28.246094 L 1.867188 -10.410156 C 1.867188 -0.4375 9.375 0.4375 13.667969 0.4375 C 17.996094 0.4375 25.546875 -0.4375 25.546875 -10.410156 Z M 25.546875 -28.246094 "/></g></g></g><g fill="#f5f1eb" fill-opacity="1"><g transform="translate(155.263913, 237.551951)"><g><path d="M 22.25 -7.390625 L 17.601562 -7.390625 C 17.601562 -6.15625 17.441406 -5.878906 16.765625 -5.679688 L 10.527344 -5.679688 L 10.527344 -28.207031 L 1.507812 -28.207031 L 1.507812 -22.921875 L 3.296875 -22.921875 L 3.296875 0 L 22.25 0 Z M 22.25 -7.390625 "/></g></g></g><g fill="#f5f1eb" fill-opacity="1"><g transform="translate(178.465346, 237.551951)"><g><path d="M 3.296875 -22.921875 L 3.296875 0 L 13.429688 0 C 18.078125 0 25.386719 -0.714844 25.386719 -6.277344 L 25.386719 -9.136719 C 25.386719 -12 23.996094 -13.867188 21.773438 -15.019531 C 23.242188 -15.972656 24.234375 -17.203125 24.234375 -18.992188 L 24.234375 -21.414062 C 24.234375 -28.089844 17.363281 -28.207031 12.433594 -28.207031 L 1.507812 -28.207031 L 1.507812 -22.921875 Z M 17.796875 -8.621094 C 17.796875 -5.324219 15.375 -5.285156 13.628906 -5.285156 L 10.925781 -5.285156 L 10.925781 -12.355469 L 13.785156 -12.355469 C 17.28125 -12.355469 17.796875 -9.933594 17.796875 -8.621094 Z M 16.726562 -20.0625 C 16.726562 -17.519531 14.777344 -17.242188 13.109375 -17.242188 L 10.925781 -17.242188 L 10.925781 -22.964844 L 13.46875 -22.964844 C 15.691406 -22.964844 16.726562 -22.488281 16.726562 -20.0625 Z M 16.726562 -20.0625 "/></g></g></g><g fill="#f5f1eb" fill-opacity="1"><g transform="translate(205.639618, 237.551951)"><g><path d="M 8.421875 0 L 10.171875 -5.285156 L 17.839844 -5.285156 L 19.625 0 L 27.292969 0 L 27.292969 -5.285156 L 25.464844 -5.285156 L 18.316406 -28.207031 L 10.011719 -28.207031 L 2.621094 -5.285156 L 0.792969 -5.285156 L 0.792969 0 Z M 14.261719 -18.554688 L 16.367188 -10.765625 L 11.839844 -10.765625 Z M 14.261719 -18.554688 "/></g></g></g><g fill="#f5f1eb" fill-opacity="1"><g transform="translate(233.727641, 237.551951)"><g><path d="M 4.050781 -22.921875 L 9.972656 -12.792969 L 9.972656 -5.285156 L 8.183594 -5.285156 L 8.183594 0 L 19.347656 0 L 19.347656 -5.285156 L 17.558594 -5.285156 L 17.558594 -12.871094 L 23.640625 -22.921875 L 27.015625 -22.921875 L 27.015625 -28.207031 L 19.347656 -28.207031 L 13.667969 -19.507812 L 8.542969 -28.207031 L 0.515625 -28.207031 L 0.515625 -22.921875 Z M 4.050781 -22.921875 "/></g></g></g><g fill="#737373" fill-opacity="1"><g transform="translate(120.321646, 272.398159)"><g><path d="M 0.859375 -5.132812 C 0.859375 -0.609375 3.1875 0.226562 5.992188 0.226562 C 8.792969 0.226562 11.191406 -0.609375 11.191406 -5.199219 L 11.191406 -7.097656 C 11.191406 -11.710938 8.726562 -12.617188 6.015625 -12.617188 C 3.253906 -12.617188 0.859375 -11.710938 0.859375 -7.078125 Z M 2.351562 -7.210938 C 2.351562 -10.761719 4.339844 -11.347656 6.015625 -11.347656 C 7.664062 -11.347656 9.699219 -10.828125 9.699219 -7.1875 L 9.699219 -5.085938 C 9.699219 -1.46875 7.617188 -1.039062 6.015625 -1.039062 C 4.273438 -1.039062 2.351562 -1.492188 2.351562 -5.109375 Z M 2.351562 -7.210938 "/></g></g></g><g fill="#737373" fill-opacity="1"><g transform="translate(136.80205, 272.398159)"><g><path d="M 16.910156 -12.457031 L 13.542969 -1.855469 L 10.285156 -12.433594 L 7.460938 -12.433594 L 7.460938 -11.144531 L 9.132812 -11.144531 L 9.449219 -10.0625 L 6.804688 -1.855469 L 3.4375 -12.457031 L 0.363281 -12.457031 L 0.363281 -11.144531 L 2.191406 -11.144531 L 5.945312 0 L 7.597656 0 L 10.195312 -7.6875 L 12.75 0 L 14.402344 0 L 18.15625 -11.144531 L 19.984375 -11.144531 L 19.984375 -12.457031 Z M 16.910156 -12.457031 "/></g></g></g><g fill="#737373" fill-opacity="1"><g transform="translate(161.441942, 272.398159)"><g><path d="M 10.285156 -2.375 C 10.285156 -0.496094 11.101562 0.136719 12.390625 0.136719 C 12.75 0.136719 13.15625 0.0898438 13.585938 0 L 13.496094 -1.289062 C 13.226562 -1.242188 13 -1.222656 12.820312 -1.222656 C 11.980469 -1.222656 11.777344 -1.671875 11.777344 -2.757812 L 11.777344 -7.710938 C 11.777344 -10.21875 10.511719 -12.617188 7.371094 -12.617188 C 5.628906 -12.617188 3.777344 -11.9375 2.804688 -10.738281 C 2.441406 -11.800781 2.601562 -12.546875 1.152344 -12.546875 C 0.882812 -12.546875 0.519531 -12.410156 0.25 -12.34375 L 0.453125 -11.234375 C 0.632812 -11.257812 0.746094 -11.28125 0.925781 -11.28125 C 1.289062 -11.28125 1.605469 -11.078125 1.605469 -10.015625 L 1.605469 0 L 3.097656 0 L 3.097656 -8.976562 C 3.707031 -10.601562 5.605469 -11.28125 7.394531 -11.28125 C 9.042969 -11.28125 10.308594 -10.105469 10.308594 -7.730469 Z M 10.285156 -2.375 "/></g></g></g></svg>