<svg xmlns="http://www.w3.org/2000/svg" xmlns:xlink="http://www.w3.org/1999/xlink" width="400" zoomAndPan="magnify" viewBox="0 0 300 299.999988" height="400" preserveAspectRatio="xMidYMid meet" version="1.0"><defs><g/><clipPath id="dbc450e784"><path d="M 0 142.660156 L 300 142.660156 L 300 170.691406 L 0 170.691406 Z M 0 142.660156 " clip-rule="nonzero"/></clipPath></defs><rect x="-30" width="360" fill="#ffffff" y="-29.999999" height="359.999986" fill-opacity="1"/><rect x="-30" width="360" fill="#ffffff" y="-29.999999" height="359.999986" fill-opacity="1"/><rect x="-30" width="360" fill="#ffffff" y="-29.999999" height="359.999986" fill-opacity="1"/><g fill="#ffffff" fill-opacity="1"><g transform="translate(33.206261, 206.29529)"><g><path d="M -0.296875 0 L -0.296875 -1.453125 L 3.359375 -1.453125 C 6.566406 -1.453125 8.847656 -2.0625 10.203125 -3.28125 C 11.566406 -4.5 12.929688 -7.003906 14.296875 -10.796875 L 46.65625 -104.109375 L 51.328125 -104.109375 L 86.46875 -8.890625 C 87.539062 -5.878906 88.632812 -3.882812 89.75 -2.90625 C 90.863281 -1.9375 92.734375 -1.453125 95.359375 -1.453125 L 97.6875 -1.453125 L 97.6875 0 L 62.109375 0 L 62.109375 -1.453125 L 66.484375 -1.453125 C 70.179688 -1.453125 72.660156 -1.84375 73.921875 -2.625 C 75.191406 -3.40625 75.828125 -4.71875 75.828125 -6.5625 C 75.828125 -7.820312 75.535156 -9.472656 74.953125 -11.515625 C 74.367188 -13.554688 73.832031 -15.257812 73.34375 -16.625 L 65.609375 -37.765625 L 25.375 -37.765625 L 18.078125 -17.203125 C 17.691406 -15.847656 17.179688 -14.148438 16.546875 -12.109375 C 15.921875 -10.066406 15.609375 -8.410156 15.609375 -7.140625 C 15.609375 -5.097656 16.40625 -3.640625 18 -2.765625 C 19.601562 -1.890625 22.691406 -1.453125 27.265625 -1.453125 L 32.8125 -1.453125 L 32.8125 0 Z M 25.8125 -39.21875 L 65.171875 -39.21875 L 53.953125 -70.421875 C 52.398438 -74.898438 50.820312 -79.445312 49.21875 -84.0625 C 47.613281 -88.675781 46.273438 -92.734375 45.203125 -96.234375 C 44.234375 -92.929688 42.992188 -89.140625 41.484375 -84.859375 C 39.972656 -80.585938 38.539062 -76.410156 37.1875 -72.328125 Z M 25.8125 -39.21875 "/></g></g></g><g fill="#ffffff" fill-opacity="1"><g transform="translate(132.061839, 206.29529)"><g><path d="M 6.265625 0 L 6.265625 -1.453125 L 12.25 -1.453125 C 16.039062 -1.453125 18.6875 -2.253906 20.1875 -3.859375 C 21.695312 -5.460938 22.453125 -8.503906 22.453125 -12.984375 L 22.453125 -91.421875 C 22.453125 -95.703125 21.695312 -98.644531 20.1875 -100.25 C 18.6875 -101.851562 16.039062 -102.65625 12.25 -102.65625 L 6.265625 -102.65625 L 6.265625 -104.109375 L 30.328125 -104.109375 L 68.53125 -10.9375 L 103.8125 -104.109375 L 126.125 -104.109375 L 126.125 -102.65625 L 122.484375 -102.65625 C 118.597656 -102.65625 115.925781 -101.851562 114.46875 -100.25 C 113.007812 -98.644531 112.28125 -95.609375 112.28125 -91.140625 L 112.28125 -12.984375 C 112.28125 -8.503906 113.007812 -5.460938 114.46875 -3.859375 C 115.925781 -2.253906 118.597656 -1.453125 122.484375 -1.453125 L 126.125 -1.453125 L 126.125 0 L 89.390625 0 L 89.390625 -1.453125 L 93.3125 -1.453125 C 96.625 -1.453125 99.007812 -2.253906 100.46875 -3.859375 C 101.925781 -5.460938 102.65625 -8.503906 102.65625 -12.984375 L 102.65625 -96.96875 L 66.046875 0 L 62.984375 0 L 23.90625 -95.5 L 23.90625 -12.984375 C 23.90625 -8.503906 24.660156 -5.460938 26.171875 -3.859375 C 27.679688 -2.253906 30.378906 -1.453125 34.265625 -1.453125 L 37.765625 -1.453125 L 37.765625 0 Z M 6.265625 0 "/></g></g></g><g clip-path="url(#dbc450e784)"><path fill="#ffffff" d="M 0 142.660156 L 299.742188 142.660156 L 299.742188 170.515625 L 0 170.515625 Z M 0 142.660156 " fill-opacity="1" fill-rule="nonzero"/></g><g fill="#ffffff" fill-opacity="1"><g transform="translate(63.484115, 162.567745)"><g><path d="M 9.914062 1.640625 C 10.027344 1.640625 10.144531 1.523438 10.144531 1.410156 C 10.144531 1.371094 10.144531 1.335938 10.105469 1.296875 C 9.914062 0.914062 10.867188 -0.722656 13.308594 -3.925781 C 15.175781 -3.890625 17.234375 -3.773438 19.5625 -3.621094 C 19.675781 -3.621094 19.789062 -3.738281 19.789062 -3.851562 C 19.789062 -3.964844 19.675781 -4.042969 19.5625 -4.078125 C 17.386719 -4.195312 15.441406 -4.308594 13.652344 -4.386719 C 14.488281 -5.492188 15.519531 -6.789062 16.699219 -8.3125 C 18.265625 -10.21875 19.523438 -11.820312 19.675781 -12.238281 C 19.828125 -12.660156 19.675781 -12.925781 19.253906 -12.925781 C 17.425781 -12.925781 10.636719 -8.464844 5.222656 -4.347656 C 2.972656 -4.234375 1.183594 -4.003906 -0.265625 -3.699219 C -0.382812 -3.660156 -0.457031 -3.585938 -0.457031 -3.46875 C -0.457031 -3.355469 -0.34375 -3.242188 -0.230469 -3.242188 L -0.191406 -3.242188 C 1.105469 -3.546875 2.667969 -3.738281 4.574219 -3.851562 C 2.820312 -2.515625 1.257812 -1.21875 0.078125 -0.152344 C 0.0390625 -0.113281 0 -0.078125 0 0 C 0 0.113281 0.113281 0.230469 0.230469 0.230469 C 0.265625 0.230469 0.34375 0.191406 0.382812 0.152344 C 1.640625 -0.992188 3.433594 -2.441406 5.375 -3.925781 C 7.433594 -4.042969 9.835938 -4.042969 12.773438 -3.964844 C 10.296875 -0.722656 9.378906 0.914062 9.722656 1.523438 C 9.761719 1.601562 9.835938 1.640625 9.914062 1.640625 Z M 5.988281 -4.386719 C 11.25 -8.351562 17.578125 -12.507812 19.253906 -12.507812 C 19.332031 -12.507812 19.332031 -12.582031 19.253906 -12.390625 C 19.140625 -12.050781 17.921875 -10.523438 16.359375 -8.578125 L 13.078125 -4.386719 C 10.296875 -4.460938 7.96875 -4.460938 5.988281 -4.386719 Z M 5.988281 -4.386719 "/></g></g></g><g fill="#ffffff" fill-opacity="1"><g transform="translate(81.401064, 162.567745)"><g><path d="M 5.1875 -4.574219 C 4.574219 -4.574219 2.136719 -4.347656 0.648438 -3.203125 C 0.570312 -3.164062 0.570312 -3.089844 0.570312 -3.050781 C 0.570312 -2.898438 0.648438 -2.820312 0.761719 -2.820312 C 0.839844 -2.820312 0.878906 -2.820312 0.914062 -2.859375 C 2.289062 -3.925781 4.574219 -4.117188 5.1875 -4.117188 C 5.71875 -4.117188 5.796875 -4.042969 5.757812 -3.925781 C 5.71875 -3.621094 4.84375 -3.050781 2.363281 -1.832031 C 0.230469 -0.761719 -0.535156 -0.304688 -0.722656 0.078125 C -0.914062 0.417969 -0.648438 0.648438 -0.152344 0.648438 C 0 0.648438 0.230469 0.609375 0.496094 0.609375 C 1.640625 0.535156 3.621094 0.417969 4.957031 1.183594 C 4.996094 1.21875 5.03125 1.21875 5.070312 1.21875 C 5.1875 1.21875 5.300781 1.105469 5.300781 0.992188 C 5.300781 0.914062 5.261719 0.839844 5.1875 0.800781 C 3.699219 -0.0390625 1.601562 0.078125 0.457031 0.152344 C 0.304688 0.191406 0.152344 0.191406 0.078125 0.191406 C -0.078125 0.191406 -0.152344 0.0390625 0 -0.0390625 C 0.382812 -0.34375 1.183594 -0.761719 2.554688 -1.449219 C 5.1875 -2.746094 6.101562 -3.316406 6.214844 -3.851562 C 6.292969 -4.347656 5.949219 -4.574219 5.1875 -4.574219 Z M 5.1875 -4.574219 "/></g></g></g><g fill="#ffffff" fill-opacity="1"><g transform="translate(90.702627, 162.567745)"><g><path d="M 5.148438 0.0390625 C 6.480469 0.0390625 9.988281 -1.410156 12.125 -2.9375 C 12.164062 -2.972656 12.203125 -3.050781 12.203125 -3.125 C 12.203125 -3.242188 12.125 -3.316406 12.011719 -3.316406 C 11.933594 -3.316406 11.898438 -3.316406 11.859375 -3.277344 C 9.722656 -1.675781 6.328125 -0.417969 5.148438 -0.417969 C 4.5 -0.417969 4.195312 -0.609375 4.195312 -1.105469 C 4.195312 -1.832031 4.804688 -2.746094 5.261719 -3.394531 C 5.527344 -3.773438 5.679688 -4.003906 5.679688 -4.15625 C 5.679688 -4.308594 5.566406 -4.421875 5.414062 -4.421875 C 5.222656 -4.421875 4.765625 -4.117188 3.964844 -3.507812 C 3.738281 -3.925781 3.46875 -4.078125 2.898438 -4.078125 C 1.601562 -4.078125 -1.832031 -1.945312 -1.832031 -0.648438 C -1.832031 -0.265625 -1.5625 -0.0390625 -1.144531 -0.0390625 C -0.078125 -0.0390625 2.289062 -1.792969 3.890625 -2.9375 C 4.195312 -3.164062 4.460938 -3.355469 4.652344 -3.46875 C 4.726562 -3.546875 4.84375 -3.507812 4.726562 -3.394531 C 4.269531 -2.707031 3.773438 -1.867188 3.773438 -1.105469 C 3.773438 -0.34375 4.234375 0.0390625 5.148438 0.0390625 Z M -1.144531 -0.496094 C -1.335938 -0.496094 -1.410156 -0.535156 -1.410156 -0.648438 C -1.410156 -1.5625 1.601562 -3.660156 2.898438 -3.660156 C 3.316406 -3.660156 3.433594 -3.585938 3.585938 -3.277344 C 2.019531 -2.097656 -0.230469 -0.496094 -1.144531 -0.496094 Z M -1.144531 -0.496094 "/></g></g></g><g fill="#ffffff" fill-opacity="1"><g transform="translate(101.834008, 162.567745)"><g><path d="M -1.066406 0.230469 C -0.761719 0.230469 -0.230469 -0.152344 1.488281 -1.601562 C 3.203125 -2.972656 5.1875 -4.652344 6.101562 -4.652344 C 6.253906 -4.652344 6.328125 -4.574219 6.328125 -4.460938 C 6.328125 -4.195312 6.023438 -3.621094 5.222656 -2.363281 C 4.5 -1.335938 4.308594 -0.953125 4.308594 -0.6875 C 4.308594 -0.496094 4.386719 -0.34375 4.574219 -0.34375 C 4.804688 -0.34375 5.1875 -0.535156 6.214844 -1.183594 C 7.550781 -1.984375 8.082031 -2.25 8.351562 -2.25 C 8.464844 -2.25 8.503906 -2.171875 8.503906 -2.136719 C 8.503906 -1.984375 8.464844 -1.792969 8.425781 -1.5625 C 8.386719 -1.335938 8.386719 -1.066406 8.386719 -0.800781 C 8.386719 -0.34375 8.730469 -0.078125 9.34375 -0.078125 C 10.410156 -0.078125 12.011719 -0.878906 14.984375 -2.9375 C 15.0625 -2.972656 15.097656 -3.050781 15.097656 -3.125 C 15.097656 -3.242188 14.984375 -3.316406 14.871094 -3.316406 C 14.832031 -3.316406 14.792969 -3.316406 14.757812 -3.277344 C 11.859375 -1.296875 10.296875 -0.496094 9.34375 -0.496094 C 8.960938 -0.496094 8.808594 -0.609375 8.808594 -0.800781 C 8.808594 -1.03125 8.847656 -1.296875 8.882812 -1.523438 C 8.882812 -1.714844 8.921875 -1.945312 8.921875 -2.136719 C 8.921875 -2.476562 8.769531 -2.667969 8.425781 -2.667969 C 7.894531 -2.667969 6.863281 -2.058594 5.988281 -1.5625 L 5.148438 -1.03125 C 4.996094 -0.953125 4.878906 -1.066406 4.996094 -1.21875 L 5.566406 -2.136719 C 6.445312 -3.46875 6.789062 -4.042969 6.789062 -4.5 C 6.789062 -4.878906 6.480469 -5.070312 5.988281 -5.070312 C 5.261719 -5.070312 4.042969 -4.234375 1.21875 -1.90625 C 0.382812 -1.257812 -0.152344 -0.800781 -0.535156 -0.535156 C -0.648438 -0.457031 -0.800781 -0.535156 -0.6875 -0.6875 C -0.230469 -1.488281 0.878906 -2.9375 2.097656 -4.042969 C 2.136719 -4.078125 2.171875 -4.15625 2.171875 -4.195312 C 2.171875 -4.347656 2.058594 -4.421875 1.945312 -4.421875 C 1.90625 -4.421875 1.832031 -4.421875 1.792969 -4.386719 C 0.457031 -3.164062 -1.410156 -0.6875 -1.410156 -0.152344 C -1.410156 0.078125 -1.296875 0.191406 -1.066406 0.230469 Z M -1.066406 0.230469 "/></g></g></g><g fill="#ffffff" fill-opacity="1"><g transform="translate(115.862597, 162.567745)"><g><path d="M 5.148438 0.0390625 C 6.480469 0.0390625 9.988281 -1.410156 12.125 -2.9375 C 12.164062 -2.972656 12.203125 -3.050781 12.203125 -3.125 C 12.203125 -3.242188 12.125 -3.316406 12.011719 -3.316406 C 11.933594 -3.316406 11.898438 -3.316406 11.859375 -3.277344 C 9.722656 -1.675781 6.328125 -0.417969 5.148438 -0.417969 C 4.5 -0.417969 4.195312 -0.609375 4.195312 -1.105469 C 4.195312 -1.832031 4.804688 -2.746094 5.261719 -3.394531 C 5.527344 -3.773438 5.679688 -4.003906 5.679688 -4.15625 C 5.679688 -4.308594 5.566406 -4.421875 5.414062 -4.421875 C 5.222656 -4.421875 4.765625 -4.117188 3.964844 -3.507812 C 3.738281 -3.925781 3.46875 -4.078125 2.898438 -4.078125 C 1.601562 -4.078125 -1.832031 -1.945312 -1.832031 -0.648438 C -1.832031 -0.265625 -1.5625 -0.0390625 -1.144531 -0.0390625 C -0.078125 -0.0390625 2.289062 -1.792969 3.890625 -2.9375 C 4.195312 -3.164062 4.460938 -3.355469 4.652344 -3.46875 C 4.726562 -3.546875 4.84375 -3.507812 4.726562 -3.394531 C 4.269531 -2.707031 3.773438 -1.867188 3.773438 -1.105469 C 3.773438 -0.34375 4.234375 0.0390625 5.148438 0.0390625 Z M -1.144531 -0.496094 C -1.335938 -0.496094 -1.410156 -0.535156 -1.410156 -0.648438 C -1.410156 -1.5625 1.601562 -3.660156 2.898438 -3.660156 C 3.316406 -3.660156 3.433594 -3.585938 3.585938 -3.277344 C 2.019531 -2.097656 -0.230469 -0.496094 -1.144531 -0.496094 Z M -1.144531 -0.496094 "/></g></g></g><g fill="#ffffff" fill-opacity="1"><g transform="translate(126.993979, 162.567745)"><g><path d="M -8.046875 9.683594 C -7.855469 9.683594 -7.625 9.378906 -7.433594 9.074219 C -7.359375 8.960938 -7.359375 8.847656 -7.433594 8.808594 C -3.8125 3.125 0.800781 -2.820312 5.527344 -8.351562 C 8.847656 -8.503906 12.238281 -8.503906 15.480469 -8.386719 C 15.632812 -8.386719 15.710938 -8.464844 15.710938 -8.578125 C 15.710938 -8.695312 15.632812 -8.808594 15.519531 -8.808594 C 12.355469 -8.921875 9.113281 -8.921875 5.949219 -8.808594 C 8.007812 -11.210938 10.066406 -13.535156 12.125 -15.746094 C 12.164062 -15.785156 12.164062 -15.863281 12.164062 -15.898438 C 12.164062 -16.015625 12.085938 -16.128906 11.933594 -16.128906 C 11.898438 -16.128906 11.820312 -16.089844 11.78125 -16.050781 C 9.648438 -13.726562 7.472656 -11.285156 5.339844 -8.769531 C 1.90625 -8.65625 -1.410156 -8.386719 -4.386719 -8.007812 C -4.5 -7.96875 -4.574219 -7.894531 -4.574219 -7.777344 C -4.574219 -7.664062 -4.460938 -7.550781 -4.347656 -7.550781 L -4.308594 -7.550781 C -1.488281 -7.929688 1.675781 -8.199219 4.957031 -8.351562 C 0.152344 -2.707031 -4.460938 3.277344 -8.121094 9.035156 C -8.160156 9.113281 -8.199219 9.1875 -8.234375 9.265625 L -8.273438 9.304688 C -8.351562 9.53125 -8.3125 9.683594 -8.046875 9.683594 Z M -8.046875 9.683594 "/></g></g></g><g fill="#ffffff" fill-opacity="1"><g transform="translate(132.674036, 162.567745)"><g/></g></g><g fill="#ffffff" fill-opacity="1"><g transform="translate(141.098809, 162.567745)"><g><path d="M 15.367188 0.417969 C 15.558594 0.417969 15.785156 0.152344 16.015625 -0.078125 C 16.089844 -0.191406 16.089844 -0.304688 16.015625 -0.34375 C 20.550781 -5.527344 23.601562 -9.648438 23.601562 -11.132812 C 23.601562 -11.628906 23.296875 -11.898438 22.800781 -11.898438 C 21.351562 -11.898438 17.652344 -8.578125 14.183594 -4.878906 C 13.957031 -4.613281 13.878906 -4.726562 14.070312 -4.957031 C 15.253906 -6.710938 16.050781 -8.121094 16.050781 -9 C 16.050781 -9.609375 15.671875 -9.953125 14.984375 -9.953125 C 14.070312 -9.953125 12.851562 -9.34375 11.554688 -8.386719 C 12.011719 -9.378906 12.316406 -10.257812 12.316406 -10.941406 C 12.316406 -11.78125 11.820312 -12.316406 11.097656 -12.316406 C 9.496094 -12.316406 7.664062 -11.132812 5.757812 -8.960938 C 5.71875 -8.921875 5.71875 -8.882812 5.71875 -8.808594 C 5.71875 -8.695312 5.796875 -8.617188 5.910156 -8.617188 C 5.988281 -8.617188 6.0625 -8.617188 6.101562 -8.695312 C 7.929688 -10.753906 9.648438 -11.859375 11.097656 -11.859375 C 11.589844 -11.859375 11.859375 -11.515625 11.859375 -10.941406 C 11.859375 -10.144531 11.4375 -9 10.789062 -7.816406 C 7.511719 -5.222656 4.042969 -1.105469 4.042969 -0.230469 C 4.042969 -0.0390625 4.195312 0.113281 4.421875 0.113281 C 5.453125 0.113281 9.1875 -4.042969 11.132812 -7.550781 C 12.582031 -8.695312 13.992188 -9.496094 14.984375 -9.496094 C 15.40625 -9.496094 15.59375 -9.34375 15.59375 -9 C 15.59375 -7.777344 13.6875 -5.148438 12.203125 -3.050781 C 11.742188 -2.402344 11.324219 -1.832031 11.019531 -1.371094 C 10.941406 -1.257812 10.980469 -1.144531 11.097656 -1.066406 C 11.210938 -0.992188 11.324219 -0.992188 11.402344 -1.105469 C 14.566406 -5.03125 20.972656 -11.476562 22.800781 -11.476562 C 23.070312 -11.476562 23.144531 -11.363281 23.144531 -11.132812 C 23.144531 -9.800781 19.980469 -5.527344 15.40625 -0.304688 C 15.253906 -0.113281 15.136719 0.0390625 15.136719 0.152344 C 15.136719 0.304688 15.214844 0.417969 15.367188 0.417969 Z M 4.726562 -0.417969 C 4.539062 -0.34375 4.539062 -0.417969 4.613281 -0.570312 C 5.109375 -1.5625 7.09375 -3.925781 9.304688 -5.988281 C 9.875 -6.519531 10.257812 -6.789062 10.21875 -6.75 C 8.464844 -4.042969 5.796875 -1.03125 4.726562 -0.417969 Z M 4.726562 -0.417969 "/></g></g></g><g fill="#ffffff" fill-opacity="1"><g transform="translate(163.132838, 162.567745)"><g><path d="M 5.148438 0.0390625 C 6.480469 0.0390625 9.988281 -1.410156 12.125 -2.9375 C 12.164062 -2.972656 12.203125 -3.050781 12.203125 -3.125 C 12.203125 -3.242188 12.125 -3.316406 12.011719 -3.316406 C 11.933594 -3.316406 11.898438 -3.316406 11.859375 -3.277344 C 9.722656 -1.675781 6.328125 -0.417969 5.148438 -0.417969 C 4.5 -0.417969 4.195312 -0.609375 4.195312 -1.105469 C 4.195312 -1.832031 4.804688 -2.746094 5.261719 -3.394531 C 5.527344 -3.773438 5.679688 -4.003906 5.679688 -4.15625 C 5.679688 -4.308594 5.566406 -4.421875 5.414062 -4.421875 C 5.222656 -4.421875 4.765625 -4.117188 3.964844 -3.507812 C 3.738281 -3.925781 3.46875 -4.078125 2.898438 -4.078125 C 1.601562 -4.078125 -1.832031 -1.945312 -1.832031 -0.648438 C -1.832031 -0.265625 -1.5625 -0.0390625 -1.144531 -0.0390625 C -0.078125 -0.0390625 2.289062 -1.792969 3.890625 -2.9375 C 4.195312 -3.164062 4.460938 -3.355469 4.652344 -3.46875 C 4.726562 -3.546875 4.84375 -3.507812 4.726562 -3.394531 C 4.269531 -2.707031 3.773438 -1.867188 3.773438 -1.105469 C 3.773438 -0.34375 4.234375 0.0390625 5.148438 0.0390625 Z M -1.144531 -0.496094 C -1.335938 -0.496094 -1.410156 -0.535156 -1.410156 -0.648438 C -1.410156 -1.5625 1.601562 -3.660156 2.898438 -3.660156 C 3.316406 -3.660156 3.433594 -3.585938 3.585938 -3.277344 C 2.019531 -2.097656 -0.230469 -0.496094 -1.144531 -0.496094 Z M -1.144531 -0.496094 "/></g></g></g><g fill="#ffffff" fill-opacity="1"><g transform="translate(174.264219, 162.567745)"><g><path d="M -4.15625 4.726562 C -3.964844 4.726562 -3.507812 4.078125 -2.972656 3.433594 C -1.945312 2.171875 -0.417969 0.230469 0.496094 -0.6875 C 2.707031 -2.9375 4.308594 -4.003906 5.453125 -4.003906 C 5.71875 -4.003906 5.832031 -3.925781 5.832031 -3.773438 C 5.71875 -3.316406 4.652344 -2.058594 1.984375 -1.675781 C 1.867188 -1.675781 1.792969 -1.640625 1.714844 -1.523438 C 1.640625 -1.449219 1.640625 -1.371094 1.640625 -1.257812 C 1.832031 -0.535156 2.667969 0.761719 4.003906 0.761719 C 6.101562 0.761719 9.875 -1.335938 12.542969 -2.9375 C 12.582031 -2.972656 12.660156 -3.050781 12.660156 -3.125 C 12.660156 -3.242188 12.542969 -3.316406 12.429688 -3.316406 L 12.316406 -3.316406 C 9.683594 -1.714844 5.988281 0.304688 4.003906 0.304688 C 2.9375 0.304688 2.25 -0.609375 2.097656 -1.257812 C 4.878906 -1.675781 6.140625 -3.125 6.253906 -3.738281 C 6.328125 -4.15625 5.988281 -4.421875 5.453125 -4.421875 C 4.15625 -4.421875 2.476562 -3.316406 0.191406 -1.03125 C -0.722656 -0.078125 -2.289062 1.867188 -2.707031 2.363281 C -3.699219 3.660156 -3.738281 3.507812 -2.972656 2.363281 C -2.058594 0.992188 -0.6875 -0.839844 0.914062 -2.898438 C 9 -8.082031 16.699219 -16.816406 16.699219 -18.722656 C 16.699219 -19.140625 16.472656 -19.371094 16.050781 -19.371094 C 14.335938 -19.371094 6.214844 -10.257812 0.722656 -3.277344 L 0.6875 -3.277344 C -2.289062 0.496094 -4.460938 3.660156 -4.460938 4.421875 C -4.460938 4.613281 -4.347656 4.726562 -4.15625 4.726562 Z M 1.792969 -4.003906 C 7.167969 -10.714844 14.566406 -18.914062 16.050781 -18.914062 C 16.242188 -18.914062 16.242188 -18.875 16.242188 -18.722656 C 16.242188 -17.042969 9.378906 -9.226562 1.792969 -4.003906 Z M 1.792969 -4.003906 "/></g></g></g><g fill="#ffffff" fill-opacity="1"><g transform="translate(185.814935, 162.567745)"><g><path d="M 4.5 0 C 5.832031 0 9.53125 -1.640625 11.476562 -2.972656 C 11.515625 -3.011719 11.554688 -3.050781 11.554688 -3.125 C 11.554688 -3.242188 11.476562 -3.355469 11.363281 -3.355469 C 11.285156 -3.355469 11.25 -3.355469 11.210938 -3.316406 C 9.226562 -1.945312 5.679688 -0.417969 4.5 -0.417969 C 3.8125 -0.417969 3.546875 -0.648438 3.546875 -1.144531 C 3.546875 -1.867188 4.386719 -2.820312 4.957031 -3.46875 C 5.375 -3.964844 5.71875 -4.460938 5.1875 -4.460938 C 4.957031 -4.460938 4.460938 -4.042969 3.242188 -3.050781 C 1.296875 -1.488281 0.191406 -0.722656 -0.265625 -0.722656 C -0.34375 -0.722656 -0.382812 -0.800781 -0.382812 -0.914062 C -0.382812 -1.410156 0.382812 -2.441406 1.675781 -3.585938 C 1.714844 -3.621094 1.753906 -3.660156 1.753906 -3.738281 C 1.753906 -3.851562 1.640625 -3.964844 1.523438 -3.964844 C 1.449219 -3.964844 1.410156 -3.925781 1.371094 -3.890625 C -0.0390625 -2.632812 -0.839844 -1.5625 -0.839844 -0.878906 C -0.839844 -0.535156 -0.609375 -0.304688 -0.265625 -0.304688 C 0.34375 -0.304688 1.449219 -1.03125 3.507812 -2.707031 C 3.964844 -3.050781 3.925781 -2.972656 3.660156 -2.59375 C 3.355469 -2.097656 3.125 -1.601562 3.125 -1.144531 C 3.125 -0.382812 3.585938 0 4.5 0 Z M 4.5 0 "/></g></g></g><g fill="#ffffff" fill-opacity="1"><g transform="translate(196.298249, 162.567745)"><g><path d="M 0.230469 1.675781 C 1.714844 1.675781 6.023438 -0.6875 9.265625 -2.9375 C 9.304688 -2.972656 9.34375 -3.011719 9.34375 -3.089844 C 9.34375 -3.203125 9.265625 -3.316406 9.152344 -3.316406 C 9.074219 -3.316406 9.035156 -3.316406 9 -3.277344 C 5.375 -0.761719 1.449219 1.257812 0.230469 1.257812 C -0.417969 1.257812 -0.609375 1.105469 -0.609375 0.570312 C -0.609375 -0.191406 -0.113281 -1.371094 0.761719 -2.746094 C 7.246094 -6.671875 18.570312 -16.585938 18.570312 -18.796875 C 18.570312 -19.292969 18.265625 -19.5625 17.730469 -19.5625 C 14.527344 -19.5625 -1.03125 -3.925781 -1.03125 0.570312 C -1.03125 1.335938 -0.648438 1.675781 0.230469 1.675781 Z M 1.335938 -3.585938 C 5.527344 -9.761719 15.367188 -19.140625 17.730469 -19.140625 C 18.035156 -19.140625 18.148438 -19.027344 18.148438 -18.796875 C 18.148438 -16.96875 8.082031 -7.929688 1.335938 -3.585938 Z M 1.335938 -3.585938 "/></g></g></g><g fill="#ffffff" fill-opacity="1"><g transform="translate(204.608661, 162.567745)"><g><path d="M -1.03125 0.609375 C -0.878906 0.609375 -0.6875 0.382812 -0.417969 0.152344 C 0.078125 -0.304688 0.914062 -1.066406 1.832031 -1.753906 C 3.394531 -2.898438 4.460938 -3.507812 4.996094 -3.507812 C 5.1875 -3.507812 5.300781 -3.46875 5.300781 -3.277344 C 5.300781 -2.746094 4.84375 -2.019531 4.234375 -1.410156 L 4.042969 -1.410156 C 2.136719 -1.144531 1.21875 -0.992188 1.21875 -0.417969 C 1.21875 0 1.5625 0.265625 2.019531 0.265625 C 2.785156 0.265625 3.699219 -0.304688 4.460938 -1.03125 C 6.480469 -1.296875 9.152344 -1.675781 11.171875 -2.9375 C 11.210938 -2.972656 11.25 -3.050781 11.25 -3.125 C 11.25 -3.242188 11.171875 -3.316406 11.058594 -3.316406 L 10.941406 -3.316406 C 9.152344 -2.210938 6.824219 -1.792969 4.917969 -1.523438 C 5.414062 -2.097656 5.71875 -2.746094 5.71875 -3.277344 C 5.71875 -3.699219 5.492188 -3.964844 5.070312 -3.964844 C 4.386719 -3.964844 3.242188 -3.316406 1.601562 -2.097656 C 0.609375 -1.410156 -0.230469 -0.648438 -0.382812 -0.496094 C -0.6875 -0.230469 -0.761719 -0.230469 -0.609375 -0.535156 C -0.265625 -1.144531 0.304688 -2.019531 1.03125 -3.011719 C 8.960938 -8.160156 16.585938 -16.816406 16.585938 -18.722656 C 16.585938 -19.140625 16.359375 -19.371094 15.9375 -19.371094 C 14.335938 -19.371094 4.996094 -9.152344 0.761719 -3.355469 L 0.722656 -3.316406 C -0.535156 -1.601562 -1.335938 -0.230469 -1.335938 0.304688 C -1.335938 0.457031 -1.21875 0.609375 -1.03125 0.609375 Z M 1.832031 -4.078125 C 6.292969 -9.835938 14.605469 -18.914062 15.9375 -18.914062 C 16.128906 -18.914062 16.167969 -18.875 16.167969 -18.722656 C 16.167969 -17.042969 9.304688 -9.226562 1.832031 -4.078125 Z M 2.019531 -0.191406 C 1.792969 -0.191406 1.675781 -0.265625 1.675781 -0.417969 C 1.675781 -0.535156 2.171875 -0.6875 3.660156 -0.914062 C 3.125 -0.457031 2.515625 -0.191406 2.019531 -0.191406 Z M 2.019531 -0.191406 "/></g></g></g><g fill="#ffffff" fill-opacity="1"><g transform="translate(214.787013, 162.567745)"><g><path d="M 5.148438 0.0390625 C 6.480469 0.0390625 9.988281 -1.410156 12.125 -2.9375 C 12.164062 -2.972656 12.203125 -3.050781 12.203125 -3.125 C 12.203125 -3.242188 12.125 -3.316406 12.011719 -3.316406 C 11.933594 -3.316406 11.898438 -3.316406 11.859375 -3.277344 C 9.722656 -1.675781 6.328125 -0.417969 5.148438 -0.417969 C 4.5 -0.417969 4.195312 -0.609375 4.195312 -1.105469 C 4.195312 -1.832031 4.804688 -2.746094 5.261719 -3.394531 C 5.527344 -3.773438 5.679688 -4.003906 5.679688 -4.15625 C 5.679688 -4.308594 5.566406 -4.421875 5.414062 -4.421875 C 5.222656 -4.421875 4.765625 -4.117188 3.964844 -3.507812 C 3.738281 -3.925781 3.46875 -4.078125 2.898438 -4.078125 C 1.601562 -4.078125 -1.832031 -1.945312 -1.832031 -0.648438 C -1.832031 -0.265625 -1.5625 -0.0390625 -1.144531 -0.0390625 C -0.078125 -0.0390625 2.289062 -1.792969 3.890625 -2.9375 C 4.195312 -3.164062 4.460938 -3.355469 4.652344 -3.46875 C 4.726562 -3.546875 4.84375 -3.507812 4.726562 -3.394531 C 4.269531 -2.707031 3.773438 -1.867188 3.773438 -1.105469 C 3.773438 -0.34375 4.234375 0.0390625 5.148438 0.0390625 Z M -1.144531 -0.496094 C -1.335938 -0.496094 -1.410156 -0.535156 -1.410156 -0.648438 C -1.410156 -1.5625 1.601562 -3.660156 2.898438 -3.660156 C 3.316406 -3.660156 3.433594 -3.585938 3.585938 -3.277344 C 2.019531 -2.097656 -0.230469 -0.496094 -1.144531 -0.496094 Z M -1.144531 -0.496094 "/></g></g></g><g fill="#ffffff" fill-opacity="1"><g transform="translate(225.918394, 162.567745)"><g><path d="M -12.964844 15.59375 C -10.410156 15.59375 -3.277344 9.761719 1.640625 4.347656 C 2.210938 3.699219 2.785156 3.050781 3.277344 2.363281 C 6.824219 0.265625 9.875 -1.792969 11.554688 -2.898438 C 11.589844 -2.9375 11.628906 -3.011719 11.628906 -3.089844 C 11.628906 -3.203125 11.515625 -3.277344 11.402344 -3.277344 C 11.363281 -3.277344 11.324219 -3.277344 11.285156 -3.242188 C 9.496094 -1.984375 7.128906 -0.417969 3.925781 1.449219 C 5.71875 -1.03125 6.824219 -3.316406 6.824219 -3.925781 C 6.824219 -4.234375 6.671875 -4.421875 6.367188 -4.421875 C 6.101562 -4.421875 5.605469 -4.078125 4.042969 -2.9375 C 2.441406 -1.714844 0.457031 -0.230469 -0.34375 -0.230469 C -0.535156 -0.230469 -0.570312 -0.265625 -0.570312 -0.382812 C -0.570312 -0.953125 1.066406 -3.164062 2.210938 -4.15625 C 2.25 -4.195312 2.289062 -4.234375 2.289062 -4.308594 C 2.289062 -4.421875 2.171875 -4.539062 2.058594 -4.539062 C 2.019531 -4.539062 1.984375 -4.5 1.945312 -4.5 C 0.914062 -3.621094 -1.03125 -1.21875 -1.03125 -0.382812 C -1.03125 0 -0.761719 0.230469 -0.34375 0.230469 C 0.609375 0.230469 2.707031 -1.371094 4.347656 -2.554688 C 5.339844 -3.316406 5.871094 -3.738281 6.175781 -3.890625 C 6.292969 -3.964844 6.367188 -3.890625 6.367188 -3.773438 C 6.101562 -2.59375 4.195312 0.417969 2.972656 2.019531 L 2.707031 2.171875 L -3.203125 5.71875 C -10.523438 10.257812 -13.878906 13.003906 -13.878906 14.71875 C -13.878906 15.253906 -13.496094 15.59375 -12.964844 15.59375 Z M -12.964844 15.136719 C -13.269531 15.136719 -13.421875 14.984375 -13.421875 14.71875 C -13.421875 13.230469 -10.066406 10.484375 -2.972656 6.101562 C -1.257812 5.03125 0.535156 4.003906 2.25 2.972656 L 1.335938 4.042969 C -3.964844 9.914062 -10.714844 15.136719 -12.964844 15.136719 Z M -12.964844 15.136719 "/></g></g></g></svg>